<svg xmlns="http://www.w3.org/2000/svg" xmlns:xlink="http://www.w3.org/1999/xlink" width="256" zoomAndPan="magnify" viewBox="0 0 192 191.999996" height="256" preserveAspectRatio="xMidYMid meet" version="1.0"><defs><clipPath id="36d67a98a3"><path d="M 36 35.621094 L 110 35.621094 L 110 150 L 36 150 Z M 36 35.621094 " clip-rule="nonzero"/></clipPath><clipPath id="49c4050a06"><path d="M 33.078125 146 L 114 146 L 114 161.621094 L 33.078125 161.621094 Z M 33.078125 146 " clip-rule="nonzero"/></clipPath></defs><g clip-path="url(#36d67a98a3)"><path fill="#ffffff" d="M 107.996094 149.871094 L 38.335938 149.871094 C 37.429688 149.871094 36.695312 149.136719 36.695312 148.230469 L 36.695312 39.660156 C 36.695312 37.429688 38.511719 35.617188 40.738281 35.617188 L 105.59375 35.617188 C 107.824219 35.617188 109.636719 37.429688 109.636719 39.660156 L 109.636719 148.234375 C 109.636719 149.136719 108.902344 149.871094 107.996094 149.871094 Z M 39.976562 146.589844 L 106.355469 146.589844 L 106.355469 39.660156 C 106.355469 39.246094 106.007812 38.894531 105.59375 38.894531 L 40.738281 38.894531 C 40.328125 38.894531 39.976562 39.246094 39.976562 39.660156 Z M 39.976562 146.589844 " fill-opacity="1" fill-rule="nonzero"/></g><g clip-path="url(#49c4050a06)"><path fill="#ffffff" d="M 111.597656 161.878906 L 34.734375 161.878906 C 33.828125 161.878906 33.09375 161.144531 33.09375 160.242188 L 33.09375 148.230469 C 33.09375 147.324219 33.828125 146.589844 34.734375 146.589844 L 111.597656 146.589844 C 112.503906 146.589844 113.238281 147.324219 113.238281 148.230469 L 113.238281 160.242188 C 113.238281 161.144531 112.503906 161.878906 111.597656 161.878906 Z M 36.371094 158.601562 L 109.957031 158.601562 L 109.957031 149.871094 L 36.371094 149.871094 Z M 36.371094 158.601562 " fill-opacity="1" fill-rule="nonzero"/></g><path fill="#ffffff" d="M 97.503906 72.765625 L 48.824219 72.765625 C 47.035156 72.765625 45.585938 71.3125 45.585938 69.527344 L 45.585938 47.746094 C 45.585938 45.960938 47.039062 44.507812 48.824219 44.507812 L 97.503906 44.507812 C 99.292969 44.507812 100.746094 45.960938 100.746094 47.746094 L 100.746094 69.527344 C 100.75 71.3125 99.292969 72.765625 97.503906 72.765625 Z M 48.863281 69.484375 L 97.46875 69.484375 L 97.46875 47.785156 L 48.863281 47.785156 Z M 97.503906 47.785156 Z M 97.503906 47.785156 " fill-opacity="1" fill-rule="nonzero"/><path fill="#ffffff" d="M 134.824219 141.40625 L 128.675781 141.40625 C 122.632812 141.40625 117.722656 136.492188 117.722656 130.449219 L 117.722656 98.027344 C 117.722656 93.964844 112.285156 90.351562 107.996094 90.351562 C 107.089844 90.351562 106.355469 89.617188 106.355469 88.714844 C 106.355469 87.808594 107.089844 87.074219 107.996094 87.074219 C 114.011719 87.074219 121 91.859375 121 98.027344 L 121 130.449219 C 121 134.679688 124.445312 138.125 128.675781 138.125 L 134.824219 138.125 C 138.875 138.125 141.816406 134.894531 141.816406 130.449219 L 141.816406 117.066406 C 141.816406 116.160156 142.550781 115.425781 143.457031 115.425781 C 144.363281 115.425781 145.097656 116.160156 145.097656 117.066406 L 145.097656 130.449219 C 145.097656 136.695312 140.683594 141.40625 134.824219 141.40625 Z M 134.824219 141.40625 " fill-opacity="1" fill-rule="nonzero"/><path fill="#ffffff" d="M 150.28125 111.878906 L 136.636719 111.878906 C 131.878906 111.878906 128.007812 108.007812 128.007812 103.253906 L 128.007812 86.332031 C 128.007812 85.429688 128.742188 84.695312 129.648438 84.695312 L 157.265625 84.695312 C 158.167969 84.695312 158.902344 85.429688 158.902344 86.332031 L 158.902344 103.253906 C 158.90625 108.007812 155.039062 111.878906 150.28125 111.878906 Z M 131.292969 87.972656 L 131.292969 103.253906 C 131.292969 106.199219 133.6875 108.597656 136.636719 108.597656 L 150.28125 108.597656 C 153.226562 108.597656 155.625 106.203125 155.625 103.253906 L 155.625 87.972656 Z M 131.292969 87.972656 " fill-opacity="1" fill-rule="nonzero"/><path fill="#ffffff" d="M 147.441406 118.023438 L 139.472656 118.023438 C 138.179688 118.023438 137.125 116.972656 137.125 115.675781 L 137.125 110.238281 C 137.125 109.332031 137.859375 108.597656 138.765625 108.597656 L 148.152344 108.597656 C 149.054688 108.597656 149.789062 109.332031 149.789062 110.238281 L 149.789062 115.675781 C 149.789062 116.972656 148.738281 118.023438 147.441406 118.023438 Z M 140.40625 114.746094 L 146.511719 114.746094 L 146.511719 111.878906 L 140.40625 111.878906 Z M 140.40625 114.746094 " fill-opacity="1" fill-rule="nonzero"/><path fill="#ffffff" d="M 142.117188 106.097656 C 141.75 106.097656 141.382812 105.976562 141.078125 105.726562 C 140.378906 105.152344 140.273438 104.121094 140.847656 103.421875 L 143.816406 99.78125 L 139.648438 99.78125 C 139.003906 99.78125 138.417969 99.40625 138.152344 98.816406 C 137.886719 98.226562 137.992188 97.542969 138.414062 97.058594 L 143.714844 91.03125 C 144.3125 90.351562 145.351562 90.285156 146.03125 90.882812 C 146.710938 91.480469 146.777344 92.515625 146.179688 93.199219 L 143.273438 96.5 L 147.269531 96.5 C 147.902344 96.5 148.480469 96.863281 148.75 97.4375 C 149.023438 98.007812 148.941406 98.6875 148.542969 99.175781 L 143.386719 105.488281 C 143.0625 105.890625 142.589844 106.097656 142.117188 106.097656 Z M 142.117188 106.097656 " fill-opacity="1" fill-rule="nonzero"/><path fill="#ffffff" d="M 135.011719 87.972656 C 134.105469 87.972656 133.371094 87.238281 133.371094 86.332031 L 133.371094 75.941406 C 133.371094 75.039062 134.105469 74.304688 135.011719 74.304688 C 135.914062 74.304688 136.648438 75.039062 136.648438 75.941406 L 136.648438 86.332031 C 136.648438 87.238281 135.917969 87.972656 135.011719 87.972656 Z M 135.011719 87.972656 " fill-opacity="1" fill-rule="nonzero"/><path fill="#ffffff" d="M 151.90625 87.972656 C 151 87.972656 150.265625 87.238281 150.265625 86.332031 L 150.265625 75.941406 C 150.265625 75.039062 151 74.304688 151.90625 74.304688 C 152.8125 74.304688 153.546875 75.039062 153.546875 75.941406 L 153.546875 86.332031 C 153.546875 87.238281 152.8125 87.972656 151.90625 87.972656 Z M 151.90625 87.972656 " fill-opacity="1" fill-rule="nonzero"/><path fill="#ffffff" d="M 64.140625 135.933594 C 63.828125 135.933594 63.515625 135.847656 63.238281 135.664062 C 62.558594 135.214844 62.3125 134.339844 62.65625 133.605469 L 71.535156 114.457031 L 57.671875 114.457031 C 57.019531 114.457031 56.429688 114.070312 56.167969 113.46875 C 55.90625 112.867188 56.027344 112.175781 56.472656 111.695312 L 82.480469 83.941406 C 83.03125 83.351562 83.933594 83.253906 84.601562 83.707031 C 85.269531 84.164062 85.503906 85.042969 85.15625 85.769531 L 75.796875 105.351562 L 88.660156 105.351562 C 89.308594 105.351562 89.894531 105.734375 90.15625 106.324219 C 90.421875 106.917969 90.3125 107.605469 89.878906 108.085938 L 65.359375 135.386719 C 65.039062 135.746094 64.59375 135.933594 64.140625 135.933594 Z M 61.457031 111.175781 L 74.105469 111.175781 C 74.664062 111.175781 75.1875 111.460938 75.484375 111.933594 C 75.785156 112.40625 75.828125 112.996094 75.589844 113.503906 L 70.234375 125.054688 L 84.980469 108.628906 L 73.195312 108.628906 C 72.632812 108.628906 72.109375 108.34375 71.808594 107.863281 C 71.511719 107.390625 71.472656 106.789062 71.71875 106.28125 L 77.632812 93.910156 Z M 61.457031 111.175781 " fill-opacity="1" fill-rule="nonzero"/></svg>