<svg xmlns="http://www.w3.org/2000/svg" xmlns:xlink="http://www.w3.org/1999/xlink" width="256" zoomAndPan="magnify" viewBox="0 0 192 191.999996" height="256" preserveAspectRatio="xMidYMid meet" version="1.0"><defs><clipPath id="f8e28e1daf"><path d="M 42.730469 30.234375 L 149.230469 30.234375 L 149.230469 161.484375 L 42.730469 161.484375 Z M 42.730469 30.234375 " clip-rule="nonzero"/></clipPath></defs><g clip-path="url(#f8e28e1daf)"><path fill="#ffffff" d="M 140.5625 30.234375 C 142.851562 30.234375 145.046875 31.144531 146.664062 32.761719 C 148.28125 34.378906 149.191406 36.574219 149.191406 38.863281 L 149.191406 153.136719 C 149.191406 155.425781 148.28125 157.621094 146.664062 159.238281 C 145.046875 160.855469 142.851562 161.765625 140.5625 161.765625 L 51.433594 161.765625 C 49.144531 161.765625 46.949219 160.855469 45.332031 159.238281 C 43.710938 157.621094 42.804688 155.425781 42.804688 153.136719 L 42.804688 38.863281 C 42.804688 36.574219 43.710938 34.378906 45.332031 32.761719 C 46.949219 31.144531 49.144531 30.234375 51.433594 30.234375 Z M 140.5625 33.960938 L 51.433594 33.960938 C 50.132812 33.960938 48.886719 34.476562 47.964844 35.398438 C 47.046875 36.316406 46.53125 37.5625 46.53125 38.863281 L 46.53125 153.136719 C 46.53125 154.4375 47.046875 155.683594 47.964844 156.601562 C 48.886719 157.519531 50.132812 158.039062 51.433594 158.039062 L 140.5625 158.039062 C 141.863281 158.039062 143.109375 157.519531 144.027344 156.601562 C 144.945312 155.683594 145.464844 154.4375 145.464844 153.136719 L 145.464844 38.863281 C 145.464844 37.5625 144.945312 36.316406 144.027344 35.398438 C 143.109375 34.476562 141.863281 33.960938 140.5625 33.960938 Z M 100.765625 119.171875 L 99.117188 131.648438 L 105.65625 134.851562 C 106.164062 135.101562 106.53125 135.566406 106.65625 136.117188 C 106.777344 136.671875 106.644531 137.25 106.289062 137.691406 L 92.441406 154.992188 C 91.878906 155.695312 90.898438 155.894531 90.105469 155.46875 C 89.3125 155.042969 88.9375 154.113281 89.214844 153.257812 L 93.234375 140.75 L 86.5 138.210938 C 85.96875 138.011719 85.558594 137.578125 85.382812 137.035156 C 85.210938 136.496094 85.292969 135.902344 85.609375 135.429688 L 97.371094 117.890625 C 97.851562 117.171875 98.765625 116.878906 99.578125 117.183594 C 100.386719 117.492188 100.878906 118.3125 100.765625 119.171875 Z M 96.023438 126.589844 L 90.015625 135.554688 L 96.207031 137.886719 C 97.136719 138.238281 97.628906 139.253906 97.324219 140.203125 L 95.863281 144.753906 C 95.863281 144.753906 101.925781 137.175781 101.925781 137.175781 L 96.273438 134.40625 C 95.554688 134.054688 95.140625 133.28125 95.246094 132.488281 Z M 54.222656 39.789062 L 137.773438 39.789062 C 138.800781 39.789062 139.636719 40.625 139.636719 41.652344 L 139.636719 111.09375 C 139.636719 112.121094 138.800781 112.957031 137.773438 112.957031 L 54.222656 112.957031 C 53.191406 112.957031 52.359375 112.121094 52.359375 111.09375 L 52.359375 41.652344 C 52.359375 40.625 53.191406 39.789062 54.222656 39.789062 Z M 56.085938 43.515625 C 56.085938 43.515625 56.085938 98.347656 56.085938 109.230469 C 56.085938 109.230469 135.910156 109.230469 135.910156 109.230469 C 135.910156 99.371094 135.910156 53.375 135.910156 43.515625 Z M 110.109375 89.433594 C 113.734375 89.433594 116.675781 92.375 116.675781 96 C 116.675781 99.625 113.734375 102.566406 110.109375 102.566406 C 106.484375 102.566406 103.542969 99.625 103.542969 96 C 103.542969 92.375 106.484375 89.433594 110.109375 89.433594 Z M 110.109375 93.160156 C 108.542969 93.160156 107.269531 94.433594 107.269531 96 C 107.269531 97.566406 108.542969 98.839844 110.109375 98.839844 C 111.675781 98.839844 112.949219 97.566406 112.949219 96 C 112.949219 94.433594 111.675781 93.160156 110.109375 93.160156 Z M 95.996094 89.433594 C 99.621094 89.433594 102.5625 92.375 102.5625 96 C 102.5625 99.625 99.621094 102.566406 95.996094 102.566406 C 92.371094 102.566406 89.429688 99.625 89.429688 96 C 89.429688 92.375 92.371094 89.433594 95.996094 89.433594 Z M 95.996094 93.160156 C 94.429688 93.160156 93.15625 94.433594 93.15625 96 C 93.15625 97.566406 94.429688 98.839844 95.996094 98.839844 C 97.5625 98.839844 98.835938 97.566406 98.835938 96 C 98.835938 94.433594 97.5625 93.160156 95.996094 93.160156 Z M 70.410156 84.332031 C 69.382812 84.332031 68.546875 83.5 68.546875 82.46875 C 68.546875 81.441406 69.382812 80.605469 70.410156 80.605469 L 76.535156 80.605469 C 77.5625 80.605469 78.398438 81.441406 78.398438 82.46875 C 78.398438 83.5 77.5625 84.332031 76.535156 84.332031 Z M 104.976562 84.332031 C 103.949219 84.332031 103.113281 83.5 103.113281 82.46875 C 103.113281 81.441406 103.949219 80.605469 104.976562 80.605469 L 111.101562 80.605469 C 112.132812 80.605469 112.964844 81.441406 112.964844 82.46875 C 112.964844 83.5 112.132812 84.332031 111.101562 84.332031 Z M 116.5 84.332031 C 115.472656 84.332031 114.636719 83.5 114.636719 82.46875 C 114.636719 81.441406 115.472656 80.605469 116.5 80.605469 L 122.625 80.605469 C 123.652344 80.605469 124.488281 81.441406 124.488281 82.46875 C 124.488281 83.5 123.652344 84.332031 122.625 84.332031 Z M 81.933594 84.332031 C 80.90625 84.332031 80.070312 83.5 80.070312 82.46875 C 80.070312 81.441406 80.90625 80.605469 81.933594 80.605469 L 88.058594 80.605469 C 89.085938 80.605469 89.921875 81.441406 89.921875 82.46875 C 89.921875 83.5 89.085938 84.332031 88.058594 84.332031 Z M 93.457031 84.332031 C 92.425781 84.332031 91.589844 83.5 91.589844 82.46875 C 91.589844 81.441406 92.425781 80.605469 93.457031 80.605469 L 99.578125 80.605469 C 100.609375 80.605469 101.445312 81.441406 101.445312 82.46875 C 101.445312 83.5 100.609375 84.332031 99.578125 84.332031 Z M 81.886719 89.433594 C 85.507812 89.433594 88.453125 92.375 88.453125 96 C 88.453125 99.625 85.507812 102.566406 81.886719 102.566406 C 78.261719 102.566406 75.316406 99.625 75.316406 96 C 75.316406 92.375 78.261719 89.433594 81.886719 89.433594 Z M 81.886719 93.160156 C 80.316406 93.160156 79.046875 94.433594 79.046875 96 C 79.046875 97.566406 80.316406 98.839844 81.886719 98.839844 C 83.453125 98.839844 84.722656 97.566406 84.722656 96 C 84.722656 94.433594 83.453125 93.160156 81.886719 93.160156 Z M 123.75 74.105469 L 68.246094 74.105469 C 67.214844 74.105469 66.382812 73.273438 66.382812 72.242188 L 66.382812 49.425781 C 66.382812 48.394531 67.214844 47.5625 68.246094 47.5625 L 123.75 47.5625 C 124.777344 47.5625 125.613281 48.394531 125.613281 49.425781 L 125.613281 72.242188 C 125.613281 73.273438 124.777344 74.105469 123.75 74.105469 Z M 77.046875 51.289062 C 72.839844 51.289062 70.109375 51.289062 70.109375 51.289062 C 70.109375 51.289062 70.109375 70.378906 70.109375 70.378906 C 70.109375 70.378906 72.839844 70.378906 77.046875 70.378906 Z M 88.601562 51.289062 C 85.820312 51.289062 83.164062 51.289062 80.773438 51.289062 L 80.773438 70.378906 C 83.164062 70.378906 85.820312 70.378906 88.601562 70.378906 Z M 100.160156 51.289062 C 97.574219 51.289062 94.925781 51.289062 92.332031 51.289062 L 92.332031 70.378906 C 94.925781 70.378906 97.574219 70.378906 100.160156 70.378906 Z M 111.71875 51.289062 C 109.34375 51.289062 106.683594 51.289062 103.890625 51.289062 L 103.890625 70.378906 C 106.683594 70.378906 109.34375 70.378906 111.71875 70.378906 Z M 115.449219 70.378906 C 119.371094 70.378906 121.882812 70.378906 121.882812 70.378906 L 121.882812 51.289062 C 121.882812 51.289062 119.371094 51.289062 115.449219 51.289062 Z M 115.449219 70.378906 " fill-opacity="1" fill-rule="evenodd"/></g></svg>