<svg xmlns="http://www.w3.org/2000/svg" xmlns:xlink="http://www.w3.org/1999/xlink" width="256" zoomAndPan="magnify" viewBox="0 0 192 191.999996" height="256" preserveAspectRatio="xMidYMid meet" version="1.0"><defs><clipPath id="4c9e46691f"><path d="M 143 60 L 168.902344 60 L 168.902344 78 L 143 78 Z M 143 60 " clip-rule="nonzero"/></clipPath><clipPath id="2806015bc7"><path d="M 23.402344 81 L 160 81 L 160 167.652344 L 23.402344 167.652344 Z M 23.402344 81 " clip-rule="nonzero"/></clipPath><clipPath id="cce8ffaa73"><path d="M 51 24.402344 L 56 24.402344 L 56 35 L 51 35 Z M 51 24.402344 " clip-rule="nonzero"/></clipPath></defs><path fill="#ffffff" d="M 138.914062 77.054688 L 145.925781 60.992188 L 127.378906 60.992188 L 120.472656 77.054688 L 138.914062 77.054688 " fill-opacity="1" fill-rule="nonzero"/><g clip-path="url(#4c9e46691f)"><path fill="#ffffff" d="M 150.347656 60.992188 L 143.335938 77.054688 L 161.574219 77.054688 L 168.515625 60.992188 L 150.347656 60.992188 " fill-opacity="1" fill-rule="nonzero"/></g><path fill="#ffffff" d="M 122.96875 60.992188 L 107.085938 60.992188 L 99.191406 77.054688 L 116.0625 77.054688 L 122.96875 60.992188 " fill-opacity="1" fill-rule="nonzero"/><g clip-path="url(#2806015bc7)"><path fill="#ffffff" d="M 134.074219 105.890625 L 107.984375 105.890625 L 113.574219 93.082031 L 139.613281 93.082031 Z M 125.160156 126.515625 L 98.980469 126.515625 L 106.214844 109.941406 L 132.324219 109.941406 Z M 116.441406 146.699219 L 90.171875 146.699219 L 97.214844 130.570312 L 123.410156 130.570312 Z M 85.75 146.699219 L 59.191406 146.699219 L 66.230469 130.570312 L 92.792969 130.570312 Z M 54.769531 146.699219 L 28.898438 146.699219 L 36.828125 130.570312 L 61.808594 130.570312 Z M 46.964844 109.941406 L 70.8125 109.941406 L 63.578125 126.515625 L 38.820312 126.515625 Z M 55.253906 93.082031 L 78.167969 93.082031 L 72.582031 105.890625 L 48.960938 105.890625 Z M 101.792969 109.941406 L 94.5625 126.515625 L 68 126.515625 L 75.234375 109.941406 Z M 82.589844 93.082031 L 109.152344 93.082031 L 103.5625 105.890625 L 77 105.890625 Z M 138.109375 89.027344 L 133.691406 89.027344 L 137.144531 81.109375 L 118.730469 81.109375 L 115.324219 89.027344 L 112.289062 89.027344 C 112.273438 89.027344 112.253906 89.027344 112.234375 89.027344 L 110.914062 89.027344 L 114.320312 81.109375 L 97.199219 81.109375 L 93.304688 89.027344 L 81.308594 89.027344 C 81.289062 89.027344 81.269531 89.027344 81.253906 89.027344 L 53.992188 89.027344 C 53.222656 89.027344 52.515625 89.46875 52.175781 90.160156 L 23.828125 147.832031 C 23.519531 148.457031 23.558594 149.203125 23.925781 149.796875 C 24.296875 150.390625 24.949219 150.75 25.648438 150.75 L 56.078125 150.75 C 56.082031 150.75 56.089844 150.75 56.09375 150.75 C 56.097656 150.75 56.101562 150.75 56.105469 150.75 L 68.695312 150.75 L 68.695312 165.585938 C 68.695312 166.703125 69.605469 167.613281 70.722656 167.613281 C 71.839844 167.613281 72.75 166.703125 72.75 165.585938 L 72.75 150.75 L 87.0625 150.75 C 87.066406 150.75 87.070312 150.75 87.078125 150.75 C 87.082031 150.75 87.085938 150.75 87.089844 150.75 L 89.066406 150.75 L 89.066406 165.585938 C 89.066406 166.703125 89.972656 167.613281 91.09375 167.613281 C 92.210938 167.613281 93.117188 166.703125 93.117188 165.585938 L 93.117188 150.75 L 117.769531 150.75 C 118.578125 150.75 119.308594 150.269531 119.628906 149.527344 L 137.117188 109.066406 C 137.269531 108.851562 137.375 108.605469 137.433594 108.335938 L 141.164062 99.703125 L 151.785156 99.703125 L 159.820312 81.109375 L 141.566406 81.109375 L 138.109375 89.027344 " fill-opacity="1" fill-rule="nonzero"/></g><path fill="#ffffff" d="M 53.058594 39.1875 C 59.039062 39.1875 63.902344 44.050781 63.902344 50.03125 C 63.902344 56.011719 59.039062 60.878906 53.058594 60.878906 C 47.078125 60.878906 42.214844 56.011719 42.214844 50.03125 C 42.214844 44.050781 47.078125 39.1875 53.058594 39.1875 Z M 53.058594 64.929688 C 61.269531 64.929688 67.953125 58.246094 67.953125 50.03125 C 67.953125 41.820312 61.269531 35.136719 53.058594 35.136719 C 44.84375 35.136719 38.160156 41.820312 38.160156 50.03125 C 38.160156 58.246094 44.84375 64.929688 53.058594 64.929688 " fill-opacity="1" fill-rule="nonzero"/><g clip-path="url(#cce8ffaa73)"><path fill="#ffffff" d="M 53.058594 34.03125 C 54.175781 34.03125 55.082031 33.125 55.082031 32.003906 L 55.082031 26.445312 C 55.082031 25.324219 54.175781 24.417969 53.058594 24.417969 C 51.9375 24.417969 51.03125 25.324219 51.03125 26.445312 L 51.03125 32.003906 C 51.03125 33.125 51.9375 34.03125 53.058594 34.03125 " fill-opacity="1" fill-rule="nonzero"/></g><path fill="#ffffff" d="M 51.03125 68.058594 L 51.03125 73.621094 C 51.03125 74.738281 51.9375 75.644531 53.058594 75.644531 C 54.175781 75.644531 55.082031 74.738281 55.082031 73.621094 L 55.082031 68.058594 C 55.082031 66.941406 54.175781 66.035156 53.058594 66.035156 C 51.9375 66.035156 51.03125 66.941406 51.03125 68.058594 " fill-opacity="1" fill-rule="nonzero"/><path fill="#ffffff" d="M 66.039062 39.546875 C 66.542969 39.546875 67.050781 39.359375 67.445312 38.980469 L 71.449219 35.125 C 72.253906 34.347656 72.277344 33.0625 71.5 32.257812 C 70.722656 31.453125 69.441406 31.429688 68.636719 32.207031 L 64.632812 36.066406 C 63.828125 36.839844 63.804688 38.125 64.578125 38.929688 C 64.976562 39.34375 65.507812 39.546875 66.039062 39.546875 " fill-opacity="1" fill-rule="nonzero"/><path fill="#ffffff" d="M 38.671875 61.082031 L 34.667969 64.941406 C 33.859375 65.71875 33.835938 67 34.613281 67.804688 C 35.007812 68.21875 35.539062 68.425781 36.070312 68.425781 C 36.578125 68.425781 37.085938 68.238281 37.476562 67.859375 L 41.484375 64 C 42.289062 63.222656 42.3125 61.941406 41.535156 61.136719 C 40.757812 60.328125 39.476562 60.308594 38.671875 61.082031 " fill-opacity="1" fill-rule="nonzero"/><path fill="#ffffff" d="M 38.671875 38.980469 C 39.0625 39.359375 39.570312 39.546875 40.078125 39.546875 C 40.605469 39.546875 41.136719 39.34375 41.535156 38.925781 C 42.3125 38.121094 42.289062 36.839844 41.484375 36.0625 L 37.476562 32.203125 C 36.675781 31.429688 35.390625 31.453125 34.613281 32.257812 C 33.835938 33.0625 33.859375 34.347656 34.667969 35.125 L 38.671875 38.980469 " fill-opacity="1" fill-rule="nonzero"/><path fill="#ffffff" d="M 64.578125 61.132812 C 63.804688 61.941406 63.828125 63.222656 64.632812 64 L 68.636719 67.859375 C 69.027344 68.238281 69.535156 68.425781 70.042969 68.425781 C 70.570312 68.425781 71.101562 68.21875 71.5 67.808594 C 72.277344 67 72.253906 65.71875 71.449219 64.941406 L 67.445312 61.082031 C 66.640625 60.308594 65.363281 60.332031 64.578125 61.132812 " fill-opacity="1" fill-rule="nonzero"/><path fill="#ffffff" d="M 69.058594 50.03125 C 69.058594 51.152344 69.964844 52.058594 71.085938 52.058594 L 76.644531 52.058594 C 77.765625 52.058594 78.671875 51.152344 78.671875 50.03125 C 78.671875 48.914062 77.765625 48.007812 76.644531 48.007812 L 71.085938 48.007812 C 69.964844 48.007812 69.058594 48.914062 69.058594 50.03125 " fill-opacity="1" fill-rule="nonzero"/><path fill="#ffffff" d="M 29.46875 52.058594 L 35.03125 52.058594 C 36.148438 52.058594 37.058594 51.152344 37.058594 50.03125 C 37.058594 48.914062 36.148438 48.007812 35.03125 48.007812 L 29.46875 48.007812 C 28.351562 48.007812 27.441406 48.914062 27.441406 50.03125 C 27.441406 51.152344 28.351562 52.058594 29.46875 52.058594 " fill-opacity="1" fill-rule="nonzero"/></svg>