<svg xmlns="http://www.w3.org/2000/svg" xmlns:xlink="http://www.w3.org/1999/xlink" width="256" zoomAndPan="magnify" viewBox="0 0 192 191.999996" height="256" preserveAspectRatio="xMidYMid meet" version="1.0"><defs><clipPath id="e60e860995"><path d="M 46.171875 93 L 83 93 L 83 146.421875 L 46.171875 146.421875 Z M 46.171875 93 " clip-rule="nonzero"/></clipPath><clipPath id="063a77e3f0"><path d="M 94 46 L 145.921875 46 L 145.921875 83 L 94 83 Z M 94 46 " clip-rule="nonzero"/></clipPath></defs><path fill="#ffffff" d="M 78.675781 67.3125 C 78.675781 68.417969 77.777344 69.316406 76.671875 69.316406 L 68.269531 69.316406 L 69.410156 68.179688 L 78.675781 58.945312 Z M 90.152344 54.808594 L 79.886719 54.808594 C 79.878906 54.808594 79.871094 54.8125 79.863281 54.8125 C 79.792969 54.816406 79.722656 54.820312 79.65625 54.832031 C 79.648438 54.832031 79.644531 54.835938 79.636719 54.835938 C 79.574219 54.851562 79.511719 54.871094 79.449219 54.894531 C 79.429688 54.902344 79.410156 54.910156 79.390625 54.921875 C 79.34375 54.941406 79.296875 54.964844 79.253906 54.992188 C 79.234375 55.003906 79.214844 55.015625 79.199219 55.027344 C 79.140625 55.066406 79.082031 55.113281 79.03125 55.164062 L 64.476562 69.667969 C 64.421875 69.722656 64.378906 69.777344 64.335938 69.835938 C 64.324219 69.855469 64.316406 69.871094 64.304688 69.890625 C 64.277344 69.933594 64.25 69.980469 64.230469 70.027344 C 64.222656 70.050781 64.210938 70.066406 64.203125 70.085938 C 64.179688 70.152344 64.15625 70.21875 64.144531 70.289062 C 64.140625 70.289062 64.140625 70.292969 64.140625 70.292969 C 64.128906 70.363281 64.121094 70.433594 64.121094 70.503906 C 64.121094 70.511719 64.117188 70.519531 64.117188 70.527344 L 64.117188 90.835938 C 64.117188 91.507812 64.660156 92.050781 65.332031 92.050781 C 66 92.050781 66.546875 91.507812 66.546875 90.835938 L 66.546875 71.742188 L 76.671875 71.742188 C 79.113281 71.742188 81.101562 69.753906 81.101562 67.3125 L 81.101562 57.238281 L 90.152344 57.238281 C 90.820312 57.238281 91.363281 56.695312 91.363281 56.023438 C 91.363281 55.351562 90.820312 54.808594 90.152344 54.808594 " fill-opacity="1" fill-rule="nonzero"/><path fill="#ffffff" d="M 136.972656 100.324219 C 137.585938 99.453125 138.398438 98.714844 139.324219 98.1875 L 141.042969 97.214844 L 140.679688 99.179688 C 140.488281 100.199219 140.09375 101.148438 139.496094 102 L 130.214844 115.273438 L 112.015625 141.300781 C 111.785156 141.632812 111.4375 141.855469 111.039062 141.925781 C 110.640625 141.996094 110.238281 141.90625 109.90625 141.675781 C 109.578125 141.441406 109.355469 141.09375 109.285156 140.695312 C 109.214844 140.296875 109.304688 139.898438 109.535156 139.566406 Z M 76.832031 134.648438 C 76.160156 134.648438 75.617188 135.191406 75.617188 135.863281 C 75.617188 136.53125 76.160156 137.074219 76.832031 137.074219 L 108.316406 137.074219 L 107.546875 138.175781 C 106.941406 139.039062 106.710938 140.085938 106.894531 141.121094 C 107.078125 142.15625 107.65625 143.0625 108.519531 143.664062 C 109.203125 144.144531 109.988281 144.375 110.769531 144.375 C 112.015625 144.375 113.242188 143.789062 114.003906 142.691406 L 130.007812 119.808594 L 130.007812 132.308594 C 130.007812 133.597656 128.960938 134.648438 127.671875 134.648438 L 123.714844 134.648438 C 123.046875 134.648438 122.503906 135.191406 122.503906 135.863281 C 122.503906 136.53125 123.046875 137.074219 123.714844 137.074219 L 127.671875 137.074219 C 130.296875 137.074219 132.4375 134.9375 132.4375 132.308594 L 132.4375 116.335938 L 141.488281 103.390625 C 142.28125 102.253906 142.8125 100.984375 143.066406 99.621094 L 143.902344 95.089844 C 143.988281 94.625 143.796875 94.15625 143.414062 93.882812 C 143.027344 93.605469 142.519531 93.582031 142.109375 93.8125 L 138.125 96.074219 C 136.886719 96.777344 135.800781 97.769531 134.984375 98.933594 L 132.4375 102.578125 L 132.4375 75.617188 C 132.4375 74.949219 131.894531 74.40625 131.222656 74.40625 C 130.550781 74.40625 130.007812 74.949219 130.007812 75.617188 L 130.007812 105.367188 C 130.007812 105.550781 130.054688 105.722656 130.128906 105.882812 L 110.011719 134.648438 L 76.832031 134.648438 " fill-opacity="1" fill-rule="nonzero"/><g clip-path="url(#e60e860995)"><path fill="#ffffff" d="M 50.554688 132.71875 L 69.449219 136.640625 L 67.785156 143.515625 C 64.648438 143.128906 55.222656 141.859375 49 139.824219 Z M 49.636719 109.503906 C 49.582031 108.84375 49.863281 108.203125 50.386719 107.789062 L 50.605469 107.617188 C 50.917969 109.34375 51.519531 111.851562 52.605469 114.195312 C 52.8125 114.636719 53.25 114.898438 53.707031 114.898438 C 53.878906 114.898438 54.054688 114.859375 54.21875 114.78125 C 54.828125 114.5 55.089844 113.777344 54.808594 113.171875 C 53.125 109.550781 52.714844 105.296875 52.710938 105.253906 C 52.710938 105.246094 52.710938 105.238281 52.710938 105.234375 C 52.707031 105.21875 52.707031 105.207031 52.707031 105.191406 C 52.703125 105.171875 52.453125 103.425781 52.339844 101.3125 C 52.304688 100.636719 52.605469 99.996094 53.140625 99.597656 L 54.285156 98.746094 C 54.464844 101.71875 55.035156 106.929688 56.828125 111.0625 C 57.027344 111.519531 57.472656 111.792969 57.941406 111.792969 C 58.101562 111.792969 58.265625 111.761719 58.425781 111.695312 C 59.039062 111.425781 59.320312 110.710938 59.054688 110.097656 C 57.03125 105.429688 56.695312 98.976562 56.640625 97 L 57.375 96.453125 C 57.875 96.082031 58.375 96.234375 58.5625 96.320312 C 58.753906 96.402344 59.199219 96.664062 59.265625 97.285156 L 59.320312 97.820312 C 59.347656 98.144531 59.84375 103.886719 61.148438 108.785156 C 61.289062 109.328125 61.78125 109.6875 62.320312 109.6875 C 62.421875 109.6875 62.527344 109.675781 62.632812 109.648438 C 63.28125 109.472656 63.664062 108.808594 63.492188 108.160156 C 62.515625 104.480469 62 100.160156 61.816406 98.40625 L 63.5 97.53125 C 63.847656 97.351562 64.152344 97.46875 64.269531 97.53125 C 64.386719 97.589844 64.660156 97.773438 64.714844 98.160156 C 65.242188 102.109375 66.160156 107.671875 67.511719 111.75 C 68.15625 113.699219 69.472656 115.386719 71.214844 116.5 C 73.328125 117.847656 76.382812 119.597656 79.476562 120.683594 L 78.949219 122.402344 C 78.628906 123.433594 77.695312 124.128906 76.617188 124.128906 C 75.144531 124.132812 72.980469 124.089844 71.050781 123.886719 C 70.453125 123.824219 69.902344 124.203125 69.75 124.785156 L 67.394531 133.734375 L 52.988281 130.742188 L 54.066406 125.308594 C 54.316406 124.050781 54.101562 122.746094 53.457031 121.636719 C 52.234375 119.535156 50.109375 115.164062 49.636719 109.503906 Z M 47.167969 141.761719 C 54.820312 144.535156 68.023438 145.996094 68.582031 146.054688 C 68.625 146.058594 68.671875 146.0625 68.714844 146.0625 C 69.269531 146.0625 69.761719 145.683594 69.894531 145.132812 L 72.105469 135.992188 C 72.179688 135.671875 72.125 135.335938 71.949219 135.058594 C 71.773438 134.777344 71.492188 134.585938 71.171875 134.519531 L 69.773438 134.226562 L 71.835938 126.394531 C 73.570312 126.53125 75.335938 126.554688 76.621094 126.558594 C 78.769531 126.554688 80.636719 125.171875 81.269531 123.117188 L 82.152344 120.257812 C 82.246094 119.945312 82.214844 119.609375 82.058594 119.324219 C 81.90625 119.039062 81.644531 118.824219 81.332031 118.734375 C 78.125 117.792969 74.769531 115.886719 72.519531 114.453125 C 71.246094 113.640625 70.285156 112.410156 69.8125 110.984375 C 68.453125 106.882812 67.542969 100.988281 67.117188 97.839844 C 66.976562 96.785156 66.332031 95.863281 65.386719 95.375 C 64.445312 94.886719 63.324219 94.886719 62.382812 95.375 L 61.375 95.898438 C 61.015625 95.105469 60.375 94.464844 59.542969 94.097656 C 58.335938 93.566406 56.988281 93.71875 55.929688 94.503906 L 51.691406 97.648438 C 50.5 98.535156 49.835938 99.949219 49.917969 101.4375 C 49.992188 102.859375 50.121094 104.101562 50.210938 104.835938 L 48.886719 105.882812 C 47.71875 106.800781 47.09375 108.230469 47.21875 109.707031 C 47.730469 115.839844 50.03125 120.578125 51.359375 122.859375 C 51.703125 123.453125 51.820312 124.15625 51.6875 124.835938 L 50.609375 130.25 L 49.871094 130.097656 C 49.222656 129.960938 48.582031 130.375 48.441406 131.027344 L 46.394531 140.363281 C 46.265625 140.957031 46.597656 141.554688 47.167969 141.761719 " fill-opacity="1" fill-rule="nonzero"/></g><g clip-path="url(#063a77e3f0)"><path fill="#ffffff" d="M 136.300781 71.242188 L 134.472656 52.03125 L 141.707031 51.261719 C 143.042969 57.667969 143.277344 67.179688 143.316406 70.339844 Z M 124.484375 70.242188 C 123.890625 70.328125 123.449219 70.835938 123.449219 71.4375 C 123.441406 73.378906 123.242188 75.53125 123.082031 76.996094 C 122.960938 78.066406 122.167969 78.921875 121.109375 79.125 L 119.34375 79.464844 C 118.601562 76.265625 117.195312 73.039062 116.085938 70.789062 C 115.171875 68.9375 113.640625 67.445312 111.773438 66.585938 C 107.996094 64.855469 102.769531 63.375 99.050781 62.4375 C 98.671875 62.34375 98.375 62.078125 98.234375 61.714844 C 98.09375 61.351562 98.140625 60.953125 98.355469 60.628906 L 99.132812 59.464844 C 100.855469 59.839844 105.089844 60.824219 108.644531 62.203125 C 108.789062 62.257812 108.9375 62.285156 109.082031 62.285156 C 109.570312 62.285156 110.027344 61.988281 110.214844 61.507812 C 110.457031 60.882812 110.148438 60.179688 109.523438 59.9375 C 104.792969 58.105469 99.128906 56.980469 98.820312 56.921875 L 97.691406 56.675781 C 97.261719 56.585938 97.113281 56.25 97.070312 56.113281 C 97.027344 55.972656 96.957031 55.613281 97.253906 55.292969 L 98.300781 54.167969 C 100.257812 54.4375 106.628906 55.472656 111.054688 58 C 111.246094 58.109375 111.453125 58.160156 111.65625 58.160156 C 112.078125 58.160156 112.488281 57.941406 112.710938 57.550781 C 113.042969 56.96875 112.839844 56.226562 112.257812 55.894531 C 108.347656 53.660156 103.230469 52.523438 100.296875 52.019531 L 101.269531 50.972656 C 101.722656 50.484375 102.390625 50.253906 103.058594 50.367188 C 105.144531 50.707031 106.855469 51.148438 106.875 51.152344 C 106.886719 51.15625 106.902344 51.15625 106.914062 51.160156 C 106.921875 51.164062 106.929688 51.164062 106.9375 51.167969 C 106.980469 51.175781 111.148438 52.039062 114.574219 54.117188 C 114.773438 54.234375 114.988281 54.292969 115.203125 54.292969 C 115.613281 54.292969 116.015625 54.085938 116.242188 53.707031 C 116.589844 53.136719 116.40625 52.386719 115.835938 52.039062 C 113.628906 50.703125 111.195312 49.832031 109.515625 49.332031 L 109.710938 49.132812 C 110.179688 48.65625 110.847656 48.449219 111.5 48.574219 C 117.070312 49.667969 121.183594 52.253906 123.140625 53.699219 C 124.167969 54.460938 125.441406 54.820312 126.722656 54.710938 L 132.242188 54.234375 L 133.636719 68.878906 Z M 142.523438 48.734375 L 133.019531 49.742188 C 132.359375 49.8125 131.878906 50.402344 131.941406 51.066406 L 132.011719 51.816406 L 126.515625 52.289062 C 125.824219 52.351562 125.136719 52.15625 124.582031 51.746094 C 122.464844 50.179688 118.003906 47.375 111.964844 46.195312 C 110.511719 45.90625 109.023438 46.371094 107.980469 47.429688 L 106.796875 48.636719 C 106.074219 48.464844 104.851562 48.199219 103.449219 47.96875 C 101.980469 47.726562 100.5 48.234375 99.488281 49.320312 L 95.476562 53.640625 C 94.667969 54.511719 94.398438 55.707031 94.753906 56.839844 C 95.050781 57.78125 95.726562 58.507812 96.609375 58.875 L 96.339844 59.277344 C 95.683594 60.253906 95.546875 61.492188 95.96875 62.585938 C 96.390625 63.683594 97.320312 64.503906 98.457031 64.792969 C 102.078125 65.703125 107.152344 67.140625 110.761719 68.792969 C 112.121094 69.417969 113.242188 70.507812 113.910156 71.863281 C 115.089844 74.253906 116.617188 77.796875 117.199219 81.089844 C 117.257812 81.410156 117.4375 81.695312 117.707031 81.878906 C 117.910156 82.019531 118.152344 82.09375 118.394531 82.09375 C 118.472656 82.09375 118.546875 82.085938 118.625 82.070312 L 121.566406 81.507812 C 123.675781 81.105469 125.257812 79.398438 125.492188 77.265625 C 125.632812 75.996094 125.800781 74.230469 125.855469 72.492188 L 133.867188 71.300781 L 134 72.71875 C 134.035156 73.046875 134.195312 73.347656 134.453125 73.550781 C 134.667969 73.726562 134.9375 73.816406 135.210938 73.816406 C 135.261719 73.816406 135.3125 73.8125 135.363281 73.808594 L 144.695312 72.613281 C 145.300781 72.535156 145.753906 72.019531 145.753906 71.410156 C 145.753906 70.847656 145.75 57.566406 143.832031 49.65625 C 143.6875 49.0625 143.128906 48.671875 142.523438 48.734375 " fill-opacity="1" fill-rule="nonzero"/></g><path fill="#ffffff" d="M 91.015625 116.632812 L 104.652344 116.632812 L 104.652344 119.539062 C 104.652344 122.671875 102.105469 125.222656 98.972656 125.222656 L 96.699219 125.222656 C 93.566406 125.222656 91.015625 122.671875 91.015625 119.539062 Z M 97.558594 73.898438 C 92.53125 73.96875 87.773438 75.96875 84.15625 79.535156 C 80.539062 83.101562 78.46875 87.832031 78.328125 92.855469 C 78.128906 100.019531 81.859375 106.703125 88.058594 110.300781 C 88.386719 110.488281 88.585938 110.847656 88.585938 111.230469 L 88.585938 119.539062 C 88.585938 124.011719 92.226562 127.648438 96.699219 127.648438 L 98.972656 127.648438 C 103.445312 127.648438 107.082031 124.011719 107.082031 119.539062 L 107.082031 115.421875 C 107.082031 114.75 106.539062 114.207031 105.867188 114.207031 L 101.722656 114.207031 L 101.722656 110.679688 C 101.722656 109.644531 102.222656 108.671875 103.054688 108.074219 C 105.097656 106.613281 108.65625 103.511719 109.542969 99.121094 C 109.566406 98.988281 110.125 95.769531 108.851562 92.804688 C 108.046875 90.929688 106.453125 89.523438 104.480469 88.953125 C 102.515625 88.382812 100.4375 88.710938 98.78125 89.847656 C 98.230469 90.226562 98.089844 90.980469 98.46875 91.535156 C 98.847656 92.089844 99.605469 92.226562 100.15625 91.847656 C 101.210938 91.125 102.539062 90.917969 103.804688 91.285156 C 105.078125 91.652344 106.105469 92.554688 106.621094 93.761719 C 107.597656 96.039062 107.15625 98.667969 107.15625 98.667969 C 106.441406 102.214844 103.394531 104.847656 101.644531 106.097656 C 100.175781 107.152344 99.296875 108.863281 99.296875 110.679688 L 99.296875 114.207031 L 96.621094 114.207031 L 96.621094 110.679688 C 96.621094 108.863281 95.746094 107.148438 94.273438 106.097656 C 93.078125 105.246094 91.398438 103.835938 90.179688 101.988281 C 89.808594 101.429688 89.054688 101.277344 88.496094 101.644531 C 87.9375 102.015625 87.78125 102.765625 88.152344 103.328125 C 89.578125 105.484375 91.5 107.101562 92.863281 108.074219 C 93.695312 108.671875 94.195312 109.644531 94.195312 110.679688 L 94.195312 114.207031 L 91.015625 114.207031 L 91.015625 111.230469 C 91.015625 109.984375 90.351562 108.820312 89.277344 108.199219 C 83.847656 105.050781 80.582031 99.195312 80.757812 92.921875 C 81.007812 83.898438 88.558594 76.453125 97.589844 76.324219 C 102.214844 76.265625 106.550781 78.007812 109.832031 81.246094 C 113.113281 84.480469 114.921875 88.800781 114.921875 93.410156 C 114.921875 99.488281 111.648438 105.160156 106.375 108.207031 C 105.316406 108.820312 104.652344 109.984375 104.652344 111.234375 C 104.652344 111.90625 105.199219 112.449219 105.867188 112.449219 C 106.539062 112.449219 107.082031 111.90625 107.082031 111.234375 C 107.082031 110.847656 107.277344 110.492188 107.59375 110.308594 C 113.609375 106.828125 117.347656 100.351562 117.347656 93.410156 C 117.347656 88.144531 115.285156 83.210938 111.535156 79.515625 C 107.789062 75.820312 102.820312 73.824219 97.558594 73.898438 " fill-opacity="1" fill-rule="nonzero"/><path fill="#ffffff" d="M 64.425781 138.789062 C 64.347656 138.804688 64.273438 138.828125 64.199219 138.859375 C 64.125 138.890625 64.054688 138.925781 63.988281 138.96875 C 63.921875 139.015625 63.863281 139.066406 63.804688 139.121094 C 63.578125 139.347656 63.449219 139.660156 63.449219 139.980469 C 63.449219 140.296875 63.578125 140.613281 63.804688 140.835938 C 63.863281 140.894531 63.921875 140.945312 63.988281 140.988281 C 64.054688 141.03125 64.125 141.066406 64.199219 141.097656 C 64.273438 141.128906 64.347656 141.152344 64.425781 141.167969 C 64.507812 141.183594 64.585938 141.191406 64.664062 141.191406 C 64.984375 141.191406 65.296875 141.0625 65.523438 140.835938 C 65.746094 140.609375 65.878906 140.296875 65.878906 139.980469 C 65.878906 139.660156 65.746094 139.347656 65.523438 139.121094 C 65.242188 138.835938 64.820312 138.710938 64.425781 138.789062 " fill-opacity="1" fill-rule="nonzero"/><path fill="#ffffff" d="M 141.265625 66.386719 C 141.234375 66.3125 141.195312 66.242188 141.152344 66.175781 C 141.105469 66.109375 141.054688 66.046875 141 65.988281 C 140.945312 65.933594 140.882812 65.882812 140.816406 65.84375 C 140.753906 65.796875 140.679688 65.761719 140.605469 65.730469 C 140.535156 65.699219 140.457031 65.675781 140.378906 65.660156 C 139.984375 65.582031 139.566406 65.707031 139.28125 65.988281 C 139.226562 66.046875 139.175781 66.109375 139.132812 66.175781 C 139.089844 66.242188 139.054688 66.3125 139.023438 66.386719 C 138.992188 66.457031 138.96875 66.535156 138.953125 66.613281 C 138.9375 66.691406 138.929688 66.769531 138.929688 66.847656 C 138.929688 66.929688 138.9375 67.007812 138.953125 67.085938 C 138.96875 67.164062 138.992188 67.242188 139.023438 67.3125 C 139.054688 67.386719 139.089844 67.457031 139.132812 67.523438 C 139.175781 67.589844 139.226562 67.652344 139.28125 67.707031 C 139.511719 67.933594 139.824219 68.0625 140.140625 68.0625 C 140.222656 68.0625 140.304688 68.058594 140.378906 68.039062 C 140.457031 68.023438 140.535156 68.003906 140.605469 67.972656 C 140.679688 67.941406 140.753906 67.902344 140.816406 67.859375 C 140.882812 67.816406 140.945312 67.761719 141 67.707031 C 141.226562 67.484375 141.355469 67.171875 141.355469 66.847656 C 141.355469 66.769531 141.351562 66.691406 141.335938 66.613281 C 141.316406 66.535156 141.296875 66.457031 141.265625 66.386719 " fill-opacity="1" fill-rule="nonzero"/><path fill="#ffffff" d="M 95.269531 94.851562 C 95.320312 94.925781 95.371094 95.007812 95.421875 95.089844 C 96.246094 96.484375 96.441406 98.140625 95.953125 99.640625 L 95.933594 99.695312 C 95.8125 100.054688 95.492188 100.109375 95.359375 100.113281 C 95.222656 100.121094 94.882812 100.101562 94.71875 99.742188 C 93.941406 98.058594 94.128906 96.417969 95.269531 94.851562 Z M 92.515625 100.761719 C 93.023438 101.859375 94.109375 102.542969 95.320312 102.542969 C 95.375 102.542969 95.433594 102.542969 95.492188 102.539062 C 96.753906 102.472656 97.832031 101.660156 98.234375 100.472656 L 98.261719 100.390625 C 98.96875 98.226562 98.691406 95.84375 97.507812 93.851562 C 95.464844 90.410156 92.15625 90.769531 91.546875 90.867188 C 87.453125 91.226562 86.136719 94.914062 86.253906 97.976562 C 86.28125 98.644531 86.851562 99.171875 87.515625 99.140625 C 88.1875 99.117188 88.707031 98.550781 88.683594 97.882812 C 88.632812 96.578125 88.832031 93.519531 91.796875 93.285156 C 91.847656 93.28125 91.898438 93.273438 91.949219 93.261719 C 91.960938 93.261719 92.570312 93.140625 93.34375 93.375 C 91.65625 95.664062 91.355469 98.253906 92.515625 100.761719 " fill-opacity="1" fill-rule="nonzero"/></svg>