<?xml version="1.0" encoding="UTF-8"?> <svg xmlns="http://www.w3.org/2000/svg" xmlns:xlink="http://www.w3.org/1999/xlink" xml:space="preserve" width="720px" height="291px" version="1.1" style="shape-rendering:geometricPrecision; text-rendering:geometricPrecision; image-rendering:optimizeQuality; fill-rule:evenodd; clip-rule:evenodd" viewBox="0 0 720 291"> <defs> <style type="text/css"> .fil0 {fill:#24307A} .fil1 {fill:#2E2E2E} </style> </defs> <g id="Layer_x0020_1"> <metadata id="CorelCorpID_0Corel-Layer"></metadata> <g id="_1868829490080"> <path class="fil0" d="M366 0l48 0 0 121 72 0 0 48 -120 0 0 -169zm-39 25l-1 -2 -2 -1 -1 -2 -2 -1 -2 -1 -1 -2 -2 -1 -2 -1 -1 -1 -2 -1 -2 -1 -2 -1 -1 -1 -2 -1 -2 -1 -2 -1 -2 0 -2 -1 -2 -1 -1 0 -2 -1 -2 -1 -2 0 -2 0 -2 -1 -2 0 -3 0 -2 -1 -2 0 -2 0 -2 0 -2 0 1 1 0 0 1 1 1 1 0 0 1 1 1 1 0 1 1 0 1 1 0 1 1 1 0 1 1 0 0 1 1 1 0 1 1 1 0 1 0 1 1 1 0 1 0 1 0 1 1 1 0 1 0 1 0 1 0 1 0 1 0 1 0 1 0 1 0 2 0 1 0 2 0 1 -1 1 0 2 0 1 -1 1 0 2 -1 1 -1 1 0 1 -1 2 -1 1 0 1 1 0 1 0 1 1 2 0 1 1 1 0 1 1 1 0 2 1 1 1 1 0 1 1 1 1 1 1 1 1 1 1 1 1 2 2 1 1 1 1 1 2 1 1 0 2 1 2 1 1 0 2 1 1 0 2 0 2 1 2 0 2 0 1 0 2 0 2 -1 2 0 2 0 1 -1 2 0 2 -1 1 -1 2 0 1 -1 2 -1 1 -1 2 -1 1 -2 2 -1 1 -1 1 -2 1 -1 2 -1 1 -2 1 -1 0 -2 1 -2 1 -1 1 -2 0 -2 1 -1 0 -2 0 -2 0 -2 1 -1 0 -2 0 -2 -1 -2 0 -2 0 -1 0 -2 -1 -2 0 -1 -1 -2 -1 -1 -1 -2 0 -1 -1 -2 -1 -1 -2 -2 -1 -1 -1 -1 -1 -2 -2 -1 -1 -1 -2 -1 -1 0 -2 -1 -1 -1 -2 -1 -1 0 -2 -1 -2 0 -1 0 -2 -1 -2 0 -2 0 -2 0 -1 0 -2 1 -2 0 -2 0 -2 1 -1 0 -2 1 -1 1 -2 1 -2 0 -1 1 -2 1 -1 1 -1 2 -2 1 -1 1 -1 0 -1 1 0 1 -1 1 0 0 -1 1 -1 1 0 1 -1 0 0 1 0 1 -1 1 0 1 -1 1 0 0 0 0 0 0 0 1 -1 1 0 1 -1 1 0 0 0 1 -1 1 0 1 -1 0 -1 1 0 1 -1 0 0 1 -1 0 -1 1 -1 1 0 0 -1 1 -1 0 -1 0 0 1 -1 0 -1 0 -1 1 -1 0 -1 0 0 0 -1 1 -1 0 -1 0 -1 0 -1 0 -1 0 -1 0 -2 0 -1 -1 -1 0 -1 0 -1 -1 -1 0 -2 0 -1 -1 -1 -1 -1 0 -1 -1 -1 -1 -1 0 0 -1 -1 -1 -1 -1 -1 -1 -1 -1 0 -1 -1 -1 0 -1 -1 -1 0 -1 -1 -1 0 -1 -1 -1 0 -2 0 -1 0 -1 0 -1 0 -1 0 -1 0 -1 0 -1 0 0 0 -1 0 -1 0 -1 1 -1 0 0 0 -1 0 -1 1 0 0 -1 0 -1 1 0 0 -2 1 -2 1 -2 0 -1 1 -2 1 -2 1 -1 1 -2 1 -2 2 -1 1 -2 1 -1 1 -2 2 -1 1 -2 1 -1 2 -2 1 -1 2 -2 1 -1 2 -1 2 -2 1 -1 2 -1 2 -1 1 -1 2 -1 2 -1 2 -1 1 -1 2 -1 2 -1 2 0 2 -1 2 -1 2 0 2 -1 2 0 2 -1 2 0 2 -1 2 0 2 0 2 -1 2 0 2 0 2 0 2 0 2 0 3 0 2 0 2 0 2 1 2 0 2 0 2 1 2 0 2 1 2 0 2 1 2 0 2 1 2 1 2 0 2 1 2 1 1 1 2 1 2 1 2 1 2 1 1 1 2 1 2 1 1 2 2 1 2 1 1 2 2 1 2 2 1 1 2 2 1 2 2 1 1 2 1 1 1 2 2 2 1 2 1 1 1 2 1 2 1 2 1 1 1 2 1 2 1 2 0 2 1 2 1 2 0 2 1 2 0 2 1 2 0 2 1 2 0 2 0 2 0 2 1 2 0 2 0 3 0 2 0 2 0 2 0 2 -1 2 0 2 0 2 0 2 -1 2 0 2 -1 2 0 2 -1 2 0 2 -1 2 -1 2 0 2 -1 2 -1 1 -1 2 -1 2 -1 2 -1 1 -1 2 -1 2 -1 2 -2 1 -1 2 -1 1 -1 2 -2 2 -1 1 -2 2 -1 1 -2 2 -2 1 -1 1 -2 2 -2 1 -1 1 -2 1 -2 1 -1 1 -2 1 -2 1 -2 1 -2 1 -1 1 -2 1 -2 0 -2 1 -2 0 -2 1 -2 0 -2 1 -2 0 -2 1 -2 0 -2 0 -2 1 -2 0 -2 0 -2 0 -2 0 -3 0 -2 0 -2 0 -2 0 -2 -1 -2 0 -2 0 -2 -1 -2 0 -2 -1 -2 0 -2 -1 -2 0 -2 -1 -2 0 -2 -1 -2 -1 -2 -1 -2 -1 -2 -1 -1 -1 -2 -1 -2 -1 -2 -1 -1 -1 -2 -1 -2 -2 -1 -1 -2 -1 -2 -2 -1 -1 -2 -2 -1zm-159 68l0 -1 1 -1 0 -1 0 -1 0 -1 0 -1 0 -1 0 -2 0 0 -1 -3 0 -2 0 -3 0 -2 0 -2 0 -1 -1 -1 0 0 -83 0 0 39 27 0 -1 1 0 0 -1 1 -2 1 -1 2 -2 1 -1 1 -2 0 -1 1 -2 1 -1 1 -2 0 -2 1 -1 0 -2 0 -2 0 -2 1 -2 0 -1 0 -2 -1 -2 0 -2 0 -2 0 -1 -1 -2 0 -2 -1 -1 -1 -2 -1 -1 0 -2 -1 -1 -1 -1 -2 -2 -1 -1 -1 -1 -1 -2 -2 -1 -1 -1 -2 -1 -1 -1 -2 0 -1 -1 -2 -1 -1 0 -2 -1 -2 0 -1 0 -2 -1 -2 0 -2 0 -2 0 -1 0 -2 1 -2 0 -2 0 -2 1 -1 0 -2 1 -1 1 -2 0 -2 1 -1 1 -2 1 -1 1 -1 2 -2 1 -1 1 -1 2 -2 1 -1 1 -1 2 -1 1 -1 2 0 1 -1 2 -1 2 0 1 -1 2 0 2 0 2 -1 2 0 1 0 2 0 2 0 2 1 2 0 1 0 2 1 2 0 1 1 2 1 1 0 2 1 1 1 2 1 1 1 2 2 1 1 1 1 0 0 36 -32 -1 -1 0 -1 -1 -1 -1 0 -2 -2 -1 -1 -2 -2 -1 -1 -2 -1 -2 -2 -1 -1 -2 -1 -2 -1 -1 -1 -2 -1 -2 -1 -2 -1 -2 -1 -1 -1 -2 -1 -2 -1 -2 0 -2 -1 -2 -1 -2 0 -2 -1 -2 0 -2 0 -2 -1 -2 0 -2 0 -2 -1 -2 0 -2 0 -2 0 -3 0 -2 0 -2 0 -2 0 -2 0 -2 1 -2 0 -2 0 -2 1 -2 0 -2 0 -2 1 -2 0 -2 1 -2 1 -2 0 -2 1 -2 1 -2 1 -2 1 -1 1 -2 1 -2 1 -2 1 -1 1 -2 1 -2 1 -1 2 -2 1 -2 1 -1 2 -2 1 -1 2 -2 1 -1 2 -2 1 -1 2 -1 2 -2 1 -1 2 -1 2 -1 1 -1 2 -1 2 -1 2 -1 1 -1 2 -1 2 -1 2 -1 2 0 2 -1 2 -1 2 0 2 -1 2 0 2 0 2 -1 2 0 2 0 2 -1 2 0 2 0 2 0 2 0 2 0 3 0 2 0 2 0 2 1 2 0 2 0 2 1 2 0 2 0 2 1 2 0 2 1 2 1 2 0 2 1 2 1 2 1 1 1 2 1 2 1 2 1 2 1 1 1 2 1 2 1 1 2 2 1 2 1 1 2 2 1 2 2 1 1 2 2 1 1 2 2 1 2 1 1 1 2 2 2 1 1 1 2 1 2 1 2 1 1 1 2 1 2 1 2 1 2 0 2 1 2 1 2 0 2 1 2 0 2 1 2 0 2 1 2 0 2 0 2 0 2 1 2 0 2 0 2 0 3 0 2 0 2 0 2 -1 2 0 2 0 2 0 2 -1 2 0 2 -1 2 0 2 -1 2 0 2 -1 2 -1 2 0 2 -1 1 -1 2 -1 2 -1 2 -1 2 -1 1 -1 2 -1 2 -1 1 -2 2 -1 2 -1 1 -1 2 -2 1 -1 2 -2 2 -2 2 -2 1 -2 2 -1 1 -2 2 -2 1 -2 1 -2 2 -2 1 -2 1 -3 1 -2 1 -2 1 -2 1 -2 0 -2 0 0 1 -2 0 -1 1 -1 0 -1 0 -1 1 -1 0 -1 0 -1 1 -3 0 -2 0 -2 0 -3zm552 76l-48 0 0 -169 48 0 0 169zm-145 -48l2 0 2 -1 2 0 2 0 1 0 2 -1 2 0 1 -1 2 -1 1 -1 2 0 1 -1 2 -1 1 -2 1 -1 2 -1 1 -1 1 -2 1 -1 1 -2 1 -1 1 -2 1 -1 1 -2 0 -1 1 -2 0 -2 1 -1 0 -2 0 -2 0 -2 0 -2 0 -1 0 -2 0 -2 0 -2 -1 -2 0 -1 -1 -2 0 -1 -1 -2 -1 -2 -1 -1 -1 -2 -1 -1 -1 -1 -1 -2 -1 -1 -2 -1 -1 -2 -1 -1 -2 -1 -1 -1 -2 -1 -1 0 -2 -1 -1 -1 -2 0 -2 -1 -1 0 -2 0 -2 -1 -2 0 -2 0 -24 0 0 73 24 0zm0 -121l3 0 2 0 2 0 2 0 2 1 2 0 2 0 2 1 2 0 2 0 2 1 2 0 2 1 2 1 2 0 2 1 2 1 1 1 2 1 2 1 2 1 2 1 1 1 2 1 2 1 1 1 2 2 2 1 1 1 2 2 1 1 2 2 2 1 1 2 1 1 2 2 1 2 1 1 2 2 1 2 1 1 1 2 1 2 1 2 1 1 1 2 1 2 0 2 1 2 1 2 1 2 0 2 1 2 0 2 1 2 0 2 1 2 0 2 0 2 0 2 0 2 1 2 0 2 0 2 0 3 0 2 -1 2 0 2 0 2 0 2 0 2 -1 2 0 2 -1 2 0 2 -1 2 0 2 -1 2 -1 2 -1 2 0 2 -1 1 -1 2 -1 2 -1 2 -1 2 -1 1 -1 2 -1 2 -2 1 -1 2 -1 2 -2 1 -1 2 -1 2 -2 1 -2 2 -1 1 -2 2 -1 1 -2 1 -2 1 -1 2 -2 1 -2 1 -1 1 -2 1 -2 1 -2 1 -2 1 -1 1 -2 1 -2 0 -2 1 -2 1 -2 0 -2 1 -2 0 -2 1 -2 0 -2 1 -2 0 -2 0 -2 0 -2 1 -2 0 -2 0 -3 0 -72 0 0 -169 72 0z"></path> <path class="fil1" d="M366 225c0,-5 0,-10 2,-13 1,-4 3,-7 6,-9 3,-2 6,-4 10,-5 3,0 8,-1 13,-1 4,0 8,0 11,1 3,0 5,1 7,2 2,1 4,2 4,3 0,1 1,3 1,4l0 9c-2,0 -4,0 -6,0 -1,0 -3,0 -4,0 -2,0 -3,0 -5,0 -1,0 -3,0 -5,0 -2,0 -5,0 -6,0 -2,0 -3,1 -4,2 -1,0 -2,1 -2,2 -1,1 -1,2 -1,3 0,1 0,2 1,3 0,1 1,2 2,3 0,1 2,1 4,2 1,1 4,2 7,4 4,1 7,3 10,5 3,1 5,3 7,5 1,2 3,5 3,8 1,2 1,6 1,10 0,5 0,9 -1,12 -1,4 -3,7 -6,9 -2,2 -5,4 -9,5 -4,1 -9,2 -15,2 -4,0 -8,0 -11,-1 -4,0 -7,-1 -9,-2 -2,0 -3,-1 -4,-2 0,-2 -1,-3 -1,-4l0 -11c4,0 7,1 10,1 3,0 7,0 10,0 3,0 5,0 7,-1 2,0 4,0 5,-1 1,-1 1,-2 2,-3 0,-1 0,-2 0,-3 0,-1 0,-3 0,-4 -1,-1 -2,-2 -3,-2 -1,-1 -2,-2 -4,-3 -2,-1 -4,-2 -7,-3 -4,-2 -8,-3 -10,-5 -3,-2 -5,-4 -6,-6 -2,-2 -3,-5 -4,-7 0,-3 0,-6 0,-9zm91 19c0,6 0,11 0,15 1,4 1,7 2,9 1,2 2,3 3,4 2,1 4,1 6,1 2,0 4,0 5,-1 2,-1 3,-2 4,-4 1,-2 1,-5 1,-9 1,-4 1,-9 1,-15 0,-6 0,-11 -1,-15 0,-4 0,-7 -1,-9 -1,-2 -2,-3 -4,-4 -1,-1 -3,-1 -5,-1 -2,0 -4,0 -6,1 -1,1 -2,2 -3,4 -1,2 -1,5 -2,9 0,4 0,9 0,15zm45 0c0,10 -1,18 -2,24 -2,7 -4,11 -7,15 -3,3 -7,5 -11,6 -4,1 -9,2 -14,2 -5,0 -10,-1 -14,-2 -4,-1 -8,-3 -11,-6 -3,-4 -5,-8 -7,-15 -1,-6 -2,-14 -2,-24 0,-10 1,-18 2,-24 2,-7 4,-11 7,-15 3,-3 7,-5 11,-6 4,-1 9,-2 14,-2 5,0 10,1 14,2 4,1 8,3 11,6 3,4 5,8 7,15 1,6 2,14 2,24zm19 45c-3,0 -5,-1 -5,-4l0 -86 18 0c3,0 5,1 5,4l0 68 24 0c3,0 5,1 5,4l0 14 -47 0zm97 -22l-18 0c-1,4 -1,8 -2,12 0,4 0,7 -1,10l-17 0c-1,0 -2,0 -3,-1 -1,-1 -1,-2 -1,-4 0,-1 0,-2 0,-2 0,-1 0,-2 0,-3 3,-14 5,-28 8,-41 3,-13 7,-26 12,-39l23 0c2,0 3,0 4,1 1,1 1,2 1,3 4,11 8,25 11,39 3,15 6,31 9,47l-19 0c-3,0 -4,-1 -5,-5l-2 -17zm-9 -52c-2,8 -3,14 -4,20 -1,5 -3,11 -3,16l14 0c-1,-5 -2,-11 -3,-16 -1,-6 -2,-12 -4,-20zm51 74c-4,0 -5,-1 -5,-4l0 -85c5,-1 10,-1 14,-2 5,0 10,-1 15,-1 10,0 18,3 23,7 6,5 8,12 8,23 0,2 0,4 0,7 -1,2 -1,4 -2,6 -1,2 -2,4 -4,6 -2,2 -4,4 -6,5 2,2 3,5 5,8 2,3 3,6 5,10 1,3 3,6 4,10 1,3 2,7 3,10l-19 0c-1,0 -3,0 -4,-1 -1,0 -1,-1 -2,-3 -1,-5 -3,-11 -6,-16 -2,-5 -4,-9 -6,-13l-6 0 0 33 -17 0zm17 -49l7 0c1,0 2,0 4,-1 1,0 2,-1 3,-2 1,-1 1,-2 2,-4 0,-1 1,-4 1,-6 0,-3 -1,-5 -1,-7 0,-2 -1,-3 -2,-4 -1,-1 -2,-1 -3,-2 -2,0 -3,0 -5,0 0,0 0,0 -1,0 -1,0 -1,0 -2,0 0,0 -1,0 -2,0 0,0 -1,0 -1,0l0 26z"></path> </g> </g> </svg> 