<svg xmlns="http://www.w3.org/2000/svg" xmlns:xlink="http://www.w3.org/1999/xlink" width="256" zoomAndPan="magnify" viewBox="0 0 192 191.999996" height="256" preserveAspectRatio="xMidYMid meet" version="1.0"><defs><clipPath id="7669365b2b"><path d="M 0 76 L 181 76 L 181 190.320312 L 0 190.320312 Z M 0 76 " clip-rule="nonzero"/></clipPath><clipPath id="5cb0151588"><path d="M 36 1.320312 L 42 1.320312 L 42 15 L 36 15 Z M 36 1.320312 " clip-rule="nonzero"/></clipPath></defs><path fill="#ffffff" d="M 152.753906 70.949219 L 162.023438 49.710938 L 137.503906 49.710938 L 128.371094 70.949219 L 152.753906 70.949219 " fill-opacity="1" fill-rule="nonzero"/><path fill="#ffffff" d="M 167.871094 49.710938 L 158.601562 70.949219 L 182.71875 70.949219 L 191.898438 49.710938 L 167.871094 49.710938 " fill-opacity="1" fill-rule="nonzero"/><path fill="#ffffff" d="M 131.667969 49.710938 L 110.664062 49.710938 L 100.226562 70.949219 L 122.535156 70.949219 L 131.667969 49.710938 " fill-opacity="1" fill-rule="nonzero"/><g clip-path="url(#7669365b2b)"><path fill="#ffffff" d="M 146.355469 109.078125 L 111.851562 109.078125 L 119.246094 92.140625 L 153.679688 92.140625 Z M 134.570312 136.355469 L 99.949219 136.355469 L 109.515625 114.4375 L 144.042969 114.4375 Z M 123.035156 163.042969 L 88.300781 163.042969 L 97.613281 141.714844 L 132.253906 141.714844 Z M 82.457031 163.042969 L 47.332031 163.042969 L 56.640625 141.714844 L 91.765625 141.714844 Z M 41.484375 163.042969 L 7.277344 163.042969 L 17.761719 141.714844 L 50.792969 141.714844 Z M 31.167969 114.4375 L 62.699219 114.4375 L 53.132812 136.355469 L 20.394531 136.355469 Z M 42.128906 92.140625 L 72.429688 92.140625 L 65.039062 109.078125 L 33.804688 109.078125 Z M 103.667969 114.4375 L 94.105469 136.355469 L 58.980469 136.355469 L 68.546875 114.4375 Z M 78.277344 92.140625 L 113.398438 92.140625 L 106.007812 109.078125 L 70.882812 109.078125 Z M 151.691406 86.78125 L 145.847656 86.78125 L 150.417969 76.308594 L 126.066406 76.308594 L 121.5625 86.78125 L 117.546875 86.78125 C 117.527344 86.78125 117.5 86.78125 117.476562 86.78125 L 115.726562 86.78125 L 120.234375 76.308594 L 97.589844 76.308594 L 92.441406 86.78125 L 76.578125 86.78125 C 76.554688 86.78125 76.527344 86.78125 76.507812 86.78125 L 40.460938 86.78125 C 39.4375 86.78125 38.507812 87.363281 38.054688 88.277344 L 0.566406 164.539062 C 0.160156 165.371094 0.210938 166.351562 0.699219 167.136719 C 1.1875 167.925781 2.050781 168.398438 2.972656 168.398438 L 43.21875 168.398438 C 43.222656 168.398438 43.230469 168.402344 43.238281 168.402344 C 43.242188 168.402344 43.246094 168.398438 43.25 168.398438 L 59.902344 168.398438 L 59.902344 188.019531 C 59.902344 189.496094 61.101562 190.695312 62.582031 190.695312 C 64.0625 190.695312 65.261719 189.496094 65.261719 188.019531 L 65.261719 168.398438 L 84.1875 168.398438 C 84.195312 168.398438 84.199219 168.402344 84.207031 168.402344 C 84.214844 168.402344 84.21875 168.398438 84.222656 168.398438 L 86.839844 168.398438 L 86.839844 188.019531 C 86.839844 189.496094 88.039062 190.695312 89.519531 190.695312 C 91 190.695312 92.199219 189.496094 92.199219 188.019531 L 92.199219 168.398438 L 124.796875 168.398438 C 125.863281 168.398438 126.832031 167.765625 127.253906 166.785156 L 150.378906 113.28125 C 150.578125 112.996094 150.722656 112.667969 150.796875 112.316406 L 155.730469 100.898438 L 169.777344 100.898438 L 180.402344 76.308594 L 156.261719 76.308594 L 151.691406 86.78125 " fill-opacity="1" fill-rule="nonzero"/></g><path fill="#ffffff" d="M 39.222656 20.875 C 47.128906 20.875 53.558594 27.308594 53.558594 35.214844 C 53.558594 43.121094 47.128906 49.554688 39.222656 49.554688 C 31.3125 49.554688 24.882812 43.121094 24.882812 35.214844 C 24.882812 27.308594 31.3125 20.875 39.222656 20.875 Z M 39.222656 54.914062 C 50.082031 54.914062 58.917969 46.074219 58.917969 35.214844 C 58.917969 24.351562 50.082031 15.515625 39.222656 15.515625 C 28.359375 15.515625 19.523438 24.351562 19.523438 35.214844 C 19.523438 46.074219 28.359375 54.914062 39.222656 54.914062 " fill-opacity="1" fill-rule="nonzero"/><g clip-path="url(#5cb0151588)"><path fill="#ffffff" d="M 39.222656 14.054688 C 40.699219 14.054688 41.898438 12.855469 41.898438 11.375 L 41.898438 4.019531 C 41.898438 2.542969 40.699219 1.34375 39.222656 1.34375 C 37.742188 1.34375 36.542969 2.542969 36.542969 4.019531 L 36.542969 11.375 C 36.542969 12.855469 37.742188 14.054688 39.222656 14.054688 " fill-opacity="1" fill-rule="nonzero"/></g><path fill="#ffffff" d="M 36.542969 59.050781 L 36.542969 66.40625 C 36.542969 67.886719 37.742188 69.085938 39.222656 69.085938 C 40.699219 69.085938 41.898438 67.886719 41.898438 66.40625 L 41.898438 59.050781 C 41.898438 57.574219 40.699219 56.375 39.222656 56.375 C 37.742188 56.375 36.542969 57.574219 36.542969 59.050781 " fill-opacity="1" fill-rule="nonzero"/><path fill="#ffffff" d="M 56.386719 21.351562 C 57.054688 21.351562 57.726562 21.101562 58.246094 20.601562 L 63.539062 15.5 C 64.605469 14.472656 64.636719 12.773438 63.609375 11.710938 C 62.582031 10.644531 60.886719 10.613281 59.820312 11.640625 L 54.527344 16.742188 C 53.460938 17.769531 53.433594 19.464844 54.457031 20.53125 C 54.984375 21.078125 55.683594 21.351562 56.386719 21.351562 " fill-opacity="1" fill-rule="nonzero"/><path fill="#ffffff" d="M 20.199219 49.824219 L 14.902344 54.925781 C 13.835938 55.957031 13.804688 57.652344 14.832031 58.71875 C 15.355469 59.261719 16.058594 59.539062 16.761719 59.539062 C 17.429688 59.539062 18.101562 59.289062 18.617188 58.789062 L 23.914062 53.683594 C 24.980469 52.660156 25.011719 50.960938 23.984375 49.898438 C 22.957031 48.828125 21.261719 48.804688 20.199219 49.824219 " fill-opacity="1" fill-rule="nonzero"/><path fill="#ffffff" d="M 20.199219 20.601562 C 20.71875 21.101562 21.386719 21.351562 22.054688 21.351562 C 22.757812 21.351562 23.460938 21.078125 23.984375 20.53125 C 25.011719 19.464844 24.980469 17.769531 23.914062 16.742188 L 18.617188 11.636719 C 17.558594 10.617188 15.859375 10.644531 14.832031 11.710938 C 13.804688 12.773438 13.835938 14.472656 14.902344 15.5 L 20.199219 20.601562 " fill-opacity="1" fill-rule="nonzero"/><path fill="#ffffff" d="M 54.457031 49.894531 C 53.433594 50.960938 53.460938 52.65625 54.527344 53.683594 L 59.820312 58.785156 C 60.339844 59.289062 61.011719 59.539062 61.679688 59.539062 C 62.382812 59.539062 63.082031 59.261719 63.609375 58.71875 C 64.636719 57.652344 64.605469 55.957031 63.539062 54.929688 L 58.246094 49.828125 C 57.183594 48.800781 55.492188 48.832031 54.457031 49.894531 " fill-opacity="1" fill-rule="nonzero"/><path fill="#ffffff" d="M 60.378906 35.214844 C 60.378906 36.695312 61.578125 37.894531 63.058594 37.894531 L 70.414062 37.894531 C 71.894531 37.894531 73.09375 36.695312 73.09375 35.214844 C 73.09375 33.734375 71.894531 32.535156 70.414062 32.535156 L 63.058594 32.535156 C 61.578125 32.535156 60.378906 33.734375 60.378906 35.214844 " fill-opacity="1" fill-rule="nonzero"/><path fill="#ffffff" d="M 8.027344 37.894531 L 15.382812 37.894531 C 16.863281 37.894531 18.0625 36.695312 18.0625 35.214844 C 18.0625 33.734375 16.863281 32.535156 15.382812 32.535156 L 8.027344 32.535156 C 6.550781 32.535156 5.351562 33.734375 5.351562 35.214844 C 5.351562 36.695312 6.550781 37.894531 8.027344 37.894531 " fill-opacity="1" fill-rule="nonzero"/></svg>