<svg xmlns="http://www.w3.org/2000/svg" xmlns:xlink="http://www.w3.org/1999/xlink" width="256" zoomAndPan="magnify" viewBox="0 0 192 191.999996" height="256" preserveAspectRatio="xMidYMid meet" version="1.0"><defs><clipPath id="562ffd43dd"><path d="M 22 4.097656 L 86 4.097656 L 86 43 L 22 43 Z M 22 4.097656 " clip-rule="nonzero"/></clipPath><clipPath id="aef66cb2d2"><path d="M 77 4.097656 L 117 4.097656 L 117 38 L 77 38 Z M 77 4.097656 " clip-rule="nonzero"/></clipPath><clipPath id="7a8eb12211"><path d="M 3.753906 4.097656 L 188 4.097656 L 188 187.847656 L 3.753906 187.847656 Z M 3.753906 4.097656 " clip-rule="nonzero"/></clipPath></defs><path fill="#ffffff" d="M 146.125 24.820312 C 149.96875 27.5625 153.570312 30.589844 156.925781 33.910156 C 160.28125 37.230469 163.347656 40.796875 166.128906 44.609375 C 168.910156 48.425781 171.367188 52.4375 173.503906 56.648438 C 175.636719 60.859375 177.421875 65.210938 178.851562 69.710938 C 178.945312 70.003906 179.089844 70.269531 179.289062 70.503906 C 179.484375 70.738281 179.722656 70.929688 179.996094 71.070312 C 180.265625 71.210938 180.558594 71.296875 180.863281 71.324219 C 181.171875 71.351562 181.46875 71.316406 181.765625 71.226562 C 182.058594 71.132812 182.320312 70.988281 182.558594 70.789062 C 182.792969 70.59375 182.984375 70.355469 183.125 70.082031 C 183.265625 69.808594 183.351562 69.519531 183.378906 69.214844 C 183.40625 68.90625 183.371094 68.605469 183.28125 68.3125 C 181.773438 63.578125 179.894531 58.992188 177.644531 54.558594 C 175.398438 50.121094 172.8125 45.898438 169.882812 41.878906 C 166.953125 37.863281 163.722656 34.105469 160.1875 30.609375 C 156.65625 27.113281 152.863281 23.921875 148.816406 21.039062 C 148.5625 20.863281 148.289062 20.742188 147.992188 20.675781 C 147.691406 20.609375 147.390625 20.601562 147.089844 20.652344 C 146.789062 20.703125 146.507812 20.8125 146.246094 20.976562 C 145.988281 21.140625 145.769531 21.34375 145.59375 21.59375 C 145.414062 21.84375 145.292969 22.117188 145.222656 22.417969 C 145.152344 22.714844 145.144531 23.015625 145.195312 23.316406 C 145.242188 23.621094 145.351562 23.902344 145.511719 24.164062 C 145.671875 24.421875 145.878906 24.640625 146.125 24.820312 Z M 146.125 24.820312 " fill-opacity="1" fill-rule="nonzero"/><g clip-path="url(#562ffd43dd)"><path fill="#ffffff" d="M 23.769531 42.457031 C 24.011719 42.648438 24.277344 42.785156 24.574219 42.871094 C 24.871094 42.953125 25.171875 42.976562 25.476562 42.941406 C 25.785156 42.902344 26.070312 42.808594 26.339844 42.660156 C 26.609375 42.507812 26.835938 42.3125 27.027344 42.070312 C 28.75 39.871094 30.574219 37.757812 32.5 35.730469 C 34.425781 33.707031 36.441406 31.777344 38.554688 29.949219 C 40.667969 28.117188 42.863281 26.394531 45.140625 24.773438 C 47.421875 23.15625 49.773438 21.652344 52.195312 20.261719 C 54.621094 18.871094 57.105469 17.601562 59.652344 16.449219 C 62.199219 15.300781 64.796875 14.273438 67.441406 13.375 C 70.085938 12.472656 72.769531 11.703125 75.492188 11.0625 C 78.210938 10.421875 80.957031 9.914062 83.726562 9.539062 C 84.03125 9.5 84.316406 9.402344 84.582031 9.246094 C 84.847656 9.089844 85.074219 8.890625 85.261719 8.644531 C 85.449219 8.402344 85.582031 8.128906 85.660156 7.832031 C 85.738281 7.53125 85.757812 7.230469 85.714844 6.925781 C 85.675781 6.621094 85.574219 6.335938 85.421875 6.070312 C 85.265625 5.804688 85.0625 5.578125 84.820312 5.390625 C 84.574219 5.203125 84.300781 5.074219 84.003906 4.996094 C 83.707031 4.917969 83.402344 4.898438 83.097656 4.941406 C 80.183594 5.335938 77.289062 5.871094 74.425781 6.542969 C 71.558594 7.21875 68.734375 8.03125 65.945312 8.976562 C 63.160156 9.925781 60.425781 11.003906 57.742188 12.214844 C 55.058594 13.429688 52.441406 14.765625 49.890625 16.230469 C 47.335938 17.695312 44.859375 19.28125 42.460938 20.984375 C 40.058594 22.6875 37.746094 24.503906 35.523438 26.433594 C 33.296875 28.359375 31.171875 30.390625 29.140625 32.523438 C 27.113281 34.65625 25.191406 36.882812 23.378906 39.199219 C 23.191406 39.441406 23.054688 39.710938 22.96875 40.007812 C 22.886719 40.304688 22.863281 40.605469 22.898438 40.910156 C 22.9375 41.214844 23.03125 41.503906 23.179688 41.769531 C 23.332031 42.039062 23.527344 42.269531 23.769531 42.457031 Z M 23.769531 42.457031 " fill-opacity="1" fill-rule="nonzero"/></g><path fill="#ffffff" d="M 109.539062 134.648438 L 81.722656 134.648438 C 81.414062 134.648438 81.117188 134.707031 80.835938 134.824219 C 80.550781 134.941406 80.300781 135.109375 80.082031 135.328125 C 79.863281 135.546875 79.695312 135.796875 79.578125 136.082031 C 79.460938 136.367188 79.402344 136.660156 79.402344 136.96875 C 79.402344 137.277344 79.460938 137.574219 79.578125 137.859375 C 79.695312 138.140625 79.863281 138.394531 80.082031 138.609375 C 80.300781 138.828125 80.550781 138.996094 80.835938 139.113281 C 81.117188 139.230469 81.414062 139.289062 81.722656 139.289062 L 109.539062 139.289062 C 109.84375 139.289062 110.140625 139.230469 110.425781 139.113281 C 110.710938 138.996094 110.960938 138.828125 111.179688 138.609375 C 111.394531 138.394531 111.5625 138.140625 111.679688 137.859375 C 111.800781 137.574219 111.859375 137.277344 111.859375 136.96875 C 111.859375 136.660156 111.800781 136.367188 111.679688 136.082031 C 111.5625 135.796875 111.394531 135.546875 111.179688 135.328125 C 110.960938 135.109375 110.710938 134.941406 110.425781 134.824219 C 110.140625 134.707031 109.84375 134.648438 109.539062 134.648438 Z M 109.539062 134.648438 " fill-opacity="1" fill-rule="nonzero"/><path fill="#ffffff" d="M 109.539062 145.976562 L 81.722656 145.976562 C 81.414062 145.976562 81.117188 146.035156 80.835938 146.152344 C 80.550781 146.269531 80.300781 146.4375 80.082031 146.65625 C 79.863281 146.871094 79.695312 147.125 79.578125 147.410156 C 79.460938 147.691406 79.402344 147.988281 79.402344 148.296875 C 79.402344 148.605469 79.460938 148.902344 79.578125 149.183594 C 79.695312 149.46875 79.863281 149.71875 80.082031 149.9375 C 80.300781 150.15625 80.550781 150.324219 80.835938 150.441406 C 81.117188 150.558594 81.414062 150.617188 81.722656 150.617188 L 109.539062 150.617188 C 109.84375 150.617188 110.140625 150.558594 110.425781 150.441406 C 110.710938 150.324219 110.960938 150.15625 111.179688 149.9375 C 111.394531 149.71875 111.5625 149.46875 111.679688 149.183594 C 111.800781 148.902344 111.859375 148.605469 111.859375 148.296875 C 111.859375 147.988281 111.800781 147.691406 111.679688 147.410156 C 111.5625 147.125 111.394531 146.871094 111.179688 146.65625 C 110.960938 146.4375 110.710938 146.269531 110.425781 146.152344 C 110.140625 146.035156 109.84375 145.976562 109.539062 145.976562 Z M 109.539062 145.976562 " fill-opacity="1" fill-rule="nonzero"/><path fill="#ffffff" d="M 109.539062 157.300781 L 81.722656 157.300781 C 81.414062 157.304688 81.121094 157.363281 80.835938 157.480469 C 80.554688 157.597656 80.300781 157.765625 80.085938 157.984375 C 79.867188 158.203125 79.703125 158.453125 79.585938 158.738281 C 79.464844 159.019531 79.40625 159.316406 79.40625 159.625 C 79.40625 159.929688 79.464844 160.226562 79.585938 160.511719 C 79.703125 160.792969 79.867188 161.046875 80.085938 161.261719 C 80.300781 161.480469 80.554688 161.648438 80.835938 161.765625 C 81.121094 161.882812 81.414062 161.945312 81.722656 161.945312 L 109.539062 161.945312 C 109.84375 161.945312 110.140625 161.886719 110.425781 161.769531 C 110.710938 161.648438 110.960938 161.480469 111.179688 161.265625 C 111.394531 161.046875 111.5625 160.796875 111.679688 160.511719 C 111.800781 160.226562 111.859375 159.929688 111.859375 159.625 C 111.859375 159.316406 111.800781 159.019531 111.679688 158.734375 C 111.5625 158.449219 111.394531 158.199219 111.179688 157.980469 C 110.960938 157.765625 110.710938 157.597656 110.425781 157.480469 C 110.140625 157.359375 109.84375 157.300781 109.539062 157.300781 Z M 109.539062 157.300781 " fill-opacity="1" fill-rule="nonzero"/><path fill="#ffffff" d="M 109.539062 168.628906 L 81.722656 168.628906 C 81.414062 168.628906 81.117188 168.6875 80.835938 168.804688 C 80.550781 168.921875 80.300781 169.089844 80.082031 169.308594 C 79.863281 169.527344 79.695312 169.777344 79.578125 170.0625 C 79.460938 170.347656 79.402344 170.640625 79.402344 170.949219 C 79.402344 171.257812 79.460938 171.554688 79.578125 171.835938 C 79.695312 172.121094 79.863281 172.375 80.082031 172.589844 C 80.300781 172.808594 80.550781 172.976562 80.835938 173.09375 C 81.117188 173.210938 81.414062 173.269531 81.722656 173.269531 L 109.539062 173.269531 C 109.84375 173.269531 110.140625 173.210938 110.425781 173.09375 C 110.710938 172.976562 110.960938 172.808594 111.179688 172.589844 C 111.394531 172.375 111.5625 172.121094 111.679688 171.835938 C 111.800781 171.554688 111.859375 171.257812 111.859375 170.949219 C 111.859375 170.640625 111.800781 170.347656 111.679688 170.0625 C 111.5625 169.777344 111.394531 169.527344 111.179688 169.308594 C 110.960938 169.089844 110.710938 168.921875 110.425781 168.804688 C 110.140625 168.6875 109.84375 168.628906 109.539062 168.628906 Z M 109.539062 168.628906 " fill-opacity="1" fill-rule="nonzero"/><g clip-path="url(#aef66cb2d2)"><path fill="#ffffff" d="M 99.261719 27.410156 C 99.847656 27.410156 100.433594 27.351562 101.007812 27.238281 C 101.585938 27.121094 102.144531 26.953125 102.6875 26.726562 C 103.234375 26.5 103.75 26.226562 104.238281 25.898438 C 104.726562 25.570312 105.179688 25.199219 105.59375 24.785156 C 106.011719 24.367188 106.382812 23.914062 106.710938 23.425781 C 107.035156 22.9375 107.3125 22.421875 107.539062 21.878906 C 107.765625 21.335938 107.933594 20.773438 108.050781 20.199219 C 108.164062 19.621094 108.222656 19.039062 108.222656 18.449219 C 108.222656 18.140625 108.164062 17.84375 108.046875 17.5625 C 107.929688 17.277344 107.761719 17.027344 107.542969 16.808594 C 107.324219 16.589844 107.074219 16.421875 106.789062 16.304688 C 106.507812 16.1875 106.210938 16.128906 105.902344 16.128906 C 105.59375 16.128906 105.296875 16.1875 105.015625 16.304688 C 104.730469 16.421875 104.480469 16.589844 104.261719 16.808594 C 104.042969 17.027344 103.875 17.277344 103.757812 17.5625 C 103.640625 17.84375 103.582031 18.140625 103.582031 18.449219 C 103.582031 18.734375 103.554688 19.015625 103.496094 19.292969 C 103.441406 19.570312 103.359375 19.839844 103.25 20.101562 C 103.140625 20.363281 103.007812 20.613281 102.851562 20.847656 C 102.695312 21.085938 102.515625 21.300781 102.3125 21.503906 C 102.113281 21.703125 101.894531 21.882812 101.660156 22.039062 C 101.425781 22.199219 101.175781 22.332031 100.914062 22.4375 C 100.652344 22.546875 100.382812 22.628906 100.101562 22.6875 C 99.824219 22.742188 99.542969 22.769531 99.261719 22.769531 C 98.867188 22.769531 98.480469 22.730469 98.09375 22.652344 C 97.710938 22.578125 97.335938 22.464844 96.972656 22.3125 C 96.609375 22.160156 96.265625 21.976562 95.941406 21.757812 C 95.613281 21.542969 95.3125 21.292969 95.035156 21.015625 C 94.757812 20.738281 94.507812 20.4375 94.289062 20.109375 C 94.070312 19.785156 93.886719 19.4375 93.738281 19.078125 C 93.585938 18.714844 93.472656 18.339844 93.394531 17.957031 C 93.320312 17.570312 93.28125 17.183594 93.28125 16.789062 C 93.28125 16.261719 93.332031 15.738281 93.4375 15.21875 C 93.539062 14.699219 93.691406 14.195312 93.894531 13.707031 C 94.097656 13.21875 94.347656 12.753906 94.640625 12.316406 C 94.933594 11.875 95.269531 11.46875 95.640625 11.09375 C 96.015625 10.722656 96.421875 10.386719 96.863281 10.09375 C 97.300781 9.800781 97.765625 9.550781 98.253906 9.347656 C 98.742188 9.144531 99.246094 8.992188 99.765625 8.890625 C 100.285156 8.785156 100.808594 8.734375 101.335938 8.734375 C 102.035156 8.734375 102.726562 8.800781 103.414062 8.941406 C 104.097656 9.078125 104.765625 9.277344 105.410156 9.546875 C 106.054688 9.816406 106.667969 10.144531 107.25 10.53125 C 107.832031 10.917969 108.367188 11.359375 108.863281 11.855469 C 109.359375 12.351562 109.800781 12.886719 110.1875 13.46875 C 110.574219 14.050781 110.90625 14.664062 111.171875 15.308594 C 111.441406 15.953125 111.640625 16.621094 111.78125 17.304688 C 111.917969 17.992188 111.984375 18.683594 111.984375 19.382812 C 111.984375 20.292969 111.894531 21.199219 111.714844 22.089844 C 111.539062 22.984375 111.273438 23.855469 110.925781 24.695312 C 110.574219 25.539062 110.148438 26.339844 109.640625 27.097656 C 109.132812 27.855469 108.558594 28.558594 107.914062 29.203125 C 107.269531 29.847656 106.566406 30.421875 105.808594 30.929688 C 105.050781 31.4375 104.25 31.863281 103.40625 32.214844 C 102.566406 32.5625 101.695312 32.828125 100.800781 33.007812 C 99.910156 33.183594 99.003906 33.273438 98.09375 33.277344 L 79.628906 33.277344 C 79.320312 33.277344 79.023438 33.335938 78.742188 33.453125 C 78.457031 33.570312 78.207031 33.738281 77.988281 33.957031 C 77.769531 34.171875 77.601562 34.425781 77.484375 34.707031 C 77.367188 34.992188 77.308594 35.289062 77.308594 35.597656 C 77.308594 35.90625 77.367188 36.199219 77.484375 36.484375 C 77.601562 36.769531 77.769531 37.019531 77.988281 37.238281 C 78.207031 37.457031 78.457031 37.625 78.742188 37.742188 C 79.023438 37.859375 79.320312 37.917969 79.628906 37.917969 L 98.09375 37.917969 C 98.699219 37.917969 99.304688 37.886719 99.910156 37.828125 C 100.511719 37.765625 101.113281 37.675781 101.707031 37.558594 C 102.304688 37.4375 102.890625 37.292969 103.472656 37.113281 C 104.050781 36.9375 104.621094 36.734375 105.183594 36.5 C 105.742188 36.269531 106.292969 36.007812 106.828125 35.722656 C 107.363281 35.4375 107.882812 35.125 108.386719 34.789062 C 108.890625 34.449219 109.378906 34.089844 109.847656 33.703125 C 110.316406 33.320312 110.765625 32.910156 111.195312 32.484375 C 111.621094 32.054688 112.03125 31.605469 112.414062 31.136719 C 112.800781 30.667969 113.160156 30.179688 113.5 29.675781 C 113.835938 29.171875 114.148438 28.652344 114.433594 28.117188 C 114.71875 27.582031 114.980469 27.03125 115.210938 26.472656 C 115.445312 25.910156 115.648438 25.339844 115.824219 24.761719 C 116.003906 24.179688 116.148438 23.59375 116.269531 22.996094 C 116.386719 22.402344 116.476562 21.800781 116.539062 21.199219 C 116.597656 20.59375 116.628906 19.988281 116.628906 19.382812 C 116.628906 18.378906 116.527344 17.382812 116.332031 16.398438 C 116.136719 15.414062 115.84375 14.460938 115.460938 13.53125 C 115.074219 12.605469 114.605469 11.726562 114.046875 10.890625 C 113.488281 10.054688 112.855469 9.285156 112.144531 8.574219 C 111.433594 7.863281 110.664062 7.230469 109.828125 6.671875 C 108.992188 6.113281 108.113281 5.644531 107.1875 5.257812 C 106.257812 4.875 105.304688 4.582031 104.320312 4.386719 C 103.335938 4.191406 102.339844 4.089844 101.335938 4.089844 C 100.503906 4.089844 99.675781 4.171875 98.859375 4.335938 C 98.042969 4.5 97.25 4.742188 96.480469 5.058594 C 95.707031 5.378906 94.976562 5.769531 94.285156 6.234375 C 93.589844 6.699219 92.949219 7.222656 92.359375 7.8125 C 91.769531 8.402344 91.246094 9.042969 90.78125 9.738281 C 90.320312 10.429688 89.925781 11.164062 89.609375 11.933594 C 89.289062 12.703125 89.046875 13.496094 88.882812 14.3125 C 88.722656 15.132812 88.640625 15.957031 88.636719 16.789062 C 88.640625 17.488281 88.707031 18.179688 88.84375 18.863281 C 88.980469 19.546875 89.183594 20.210938 89.449219 20.851562 C 89.71875 21.496094 90.046875 22.109375 90.433594 22.6875 C 90.820312 23.269531 91.261719 23.804688 91.753906 24.296875 C 92.246094 24.789062 92.78125 25.230469 93.363281 25.617188 C 93.941406 26.003906 94.554688 26.332031 95.199219 26.601562 C 95.84375 26.867188 96.503906 27.070312 97.191406 27.207031 C 97.875 27.34375 98.5625 27.410156 99.261719 27.410156 Z M 99.261719 27.410156 " fill-opacity="1" fill-rule="nonzero"/></g><g clip-path="url(#7a8eb12211)"><path fill="#ffffff" d="M 185.195312 141.738281 L 160.355469 141.738281 L 160.355469 105.59375 C 160.851562 105.414062 161.320312 105.175781 161.761719 104.886719 C 162.199219 104.597656 162.601562 104.261719 162.964844 103.875 C 163.324219 103.492188 163.636719 103.070312 163.902344 102.617188 C 164.164062 102.160156 164.371094 101.675781 164.523438 101.171875 C 164.671875 100.667969 164.765625 100.152344 164.792969 99.625 C 164.824219 99.097656 164.792969 98.574219 164.703125 98.054688 C 164.609375 97.535156 164.460938 97.035156 164.25 96.550781 C 164.042969 96.066406 163.78125 95.613281 163.464844 95.191406 C 163.148438 94.765625 162.789062 94.386719 162.386719 94.046875 C 161.980469 93.707031 161.542969 93.421875 161.074219 93.183594 C 160.601562 92.949219 160.109375 92.769531 159.597656 92.648438 C 159.082031 92.523438 158.5625 92.464844 158.035156 92.464844 C 157.507812 92.464844 156.988281 92.523438 156.476562 92.648438 C 155.960938 92.769531 155.46875 92.949219 155 93.183594 C 154.527344 93.421875 154.089844 93.707031 153.6875 94.046875 C 153.28125 94.386719 152.921875 94.765625 152.605469 95.191406 C 152.292969 95.613281 152.03125 96.066406 151.820312 96.550781 C 151.613281 97.035156 151.460938 97.535156 151.371094 98.054688 C 151.277344 98.574219 151.246094 99.097656 151.277344 99.625 C 151.308594 100.152344 151.398438 100.667969 151.550781 101.171875 C 151.699219 101.675781 151.90625 102.160156 152.171875 102.617188 C 152.433594 103.070312 152.746094 103.492188 153.109375 103.875 C 153.46875 104.261719 153.871094 104.597656 154.3125 104.886719 C 154.75 105.175781 155.21875 105.414062 155.714844 105.59375 L 155.714844 141.738281 L 145.34375 141.738281 L 140.535156 70.496094 C 140.808594 70.367188 141.074219 70.222656 141.335938 70.0625 L 183.160156 94.210938 C 183.425781 94.363281 183.710938 94.460938 184.019531 94.503906 C 184.324219 94.542969 184.625 94.523438 184.921875 94.441406 C 185.21875 94.363281 185.492188 94.230469 185.734375 94.042969 C 185.980469 93.855469 186.179688 93.625 186.332031 93.359375 C 186.792969 92.558594 187.125 91.707031 187.320312 90.800781 C 187.515625 89.898438 187.566406 88.984375 187.476562 88.066406 C 187.386719 87.144531 187.160156 86.261719 186.792969 85.410156 C 186.421875 84.5625 185.933594 83.789062 185.328125 83.09375 L 169.671875 65.21875 C 169.164062 64.640625 168.59375 64.140625 167.957031 63.710938 C 167.320312 63.28125 166.640625 62.941406 165.914062 62.691406 C 165.1875 62.4375 164.445312 62.28125 163.679688 62.222656 C 162.914062 62.164062 162.152344 62.203125 161.398438 62.339844 L 151.210938 64.222656 C 150.191406 64.40625 149.234375 64.242188 148.335938 63.726562 L 145.46875 62.070312 C 145.375 60.695312 144.972656 59.414062 144.265625 58.226562 C 143.558594 57.039062 142.625 56.078125 141.457031 55.339844 L 141.457031 6.410156 C 141.457031 6.105469 141.398438 5.808594 141.28125 5.523438 C 141.164062 5.238281 140.996094 4.988281 140.777344 4.769531 C 140.558594 4.554688 140.308594 4.386719 140.023438 4.265625 C 139.738281 4.148438 139.445312 4.089844 139.136719 4.089844 C 138.210938 4.089844 137.308594 4.230469 136.425781 4.515625 C 135.546875 4.796875 134.730469 5.207031 133.976562 5.746094 C 133.226562 6.285156 132.574219 6.925781 132.023438 7.667969 C 131.472656 8.410156 131.046875 9.21875 130.75 10.09375 L 123.09375 32.585938 C 122.847656 33.316406 122.699219 34.0625 122.644531 34.828125 C 122.59375 35.59375 122.640625 36.351562 122.78125 37.105469 C 122.925781 37.859375 123.164062 38.582031 123.496094 39.277344 C 123.828125 39.96875 124.242188 40.605469 124.738281 41.191406 L 131.460938 49.074219 C 132.132812 49.863281 132.46875 50.773438 132.46875 51.8125 L 132.46875 55.164062 C 131.84375 55.527344 131.273438 55.964844 130.753906 56.46875 C 130.238281 56.976562 129.792969 57.539062 129.414062 58.15625 C 129.039062 58.773438 128.746094 59.429688 128.53125 60.121094 C 128.320312 60.8125 128.195312 61.519531 128.160156 62.242188 L 86.273438 86.425781 C 86.007812 86.578125 85.777344 86.777344 85.589844 87.023438 C 85.402344 87.265625 85.269531 87.539062 85.191406 87.835938 C 85.109375 88.132812 85.089844 88.433594 85.128906 88.738281 C 85.171875 89.046875 85.269531 89.332031 85.421875 89.597656 C 85.882812 90.398438 86.457031 91.109375 87.144531 91.730469 C 87.828125 92.355469 88.59375 92.855469 89.433594 93.238281 C 90.277344 93.621094 91.160156 93.863281 92.078125 93.96875 C 92.996094 94.074219 93.910156 94.039062 94.816406 93.859375 L 118.125 89.242188 C 118.878906 89.09375 119.597656 88.847656 120.289062 88.511719 C 120.976562 88.171875 121.613281 87.753906 122.191406 87.25 C 122.773438 86.75 123.28125 86.183594 123.714844 85.550781 C 124.148438 84.917969 124.496094 84.238281 124.753906 83.515625 L 128.21875 73.753906 C 128.566406 72.777344 129.1875 72.027344 130.085938 71.511719 L 132.449219 70.144531 C 132.664062 70.273438 132.882812 70.390625 133.109375 70.496094 L 128.300781 141.738281 L 121.945312 141.738281 L 121.945312 128.519531 C 121.945312 127.964844 121.890625 127.414062 121.78125 126.867188 C 121.671875 126.324219 121.511719 125.792969 121.296875 125.28125 C 121.085938 124.769531 120.824219 124.28125 120.515625 123.820312 C 120.207031 123.355469 119.855469 122.929688 119.464844 122.535156 C 119.070312 122.144531 118.644531 121.792969 118.179688 121.484375 C 117.71875 121.175781 117.230469 120.914062 116.71875 120.703125 C 116.207031 120.488281 115.675781 120.328125 115.132812 120.21875 C 114.585938 120.109375 114.035156 120.054688 113.480469 120.054688 L 110.167969 120.054688 L 110.167969 111.300781 C 110.167969 110.996094 110.109375 110.699219 109.992188 110.414062 C 109.875 110.128906 109.707031 109.878906 109.488281 109.660156 C 109.269531 109.441406 109.019531 109.277344 108.734375 109.15625 C 108.453125 109.039062 108.15625 108.980469 107.847656 108.980469 L 83.414062 108.980469 C 83.105469 108.980469 82.808594 109.039062 82.523438 109.15625 C 82.238281 109.277344 81.988281 109.441406 81.769531 109.660156 C 81.554688 109.878906 81.386719 110.128906 81.269531 110.414062 C 81.148438 110.699219 81.089844 110.996094 81.089844 111.300781 L 81.089844 120.054688 L 77.777344 120.054688 C 77.222656 120.054688 76.671875 120.109375 76.128906 120.21875 C 75.582031 120.328125 75.054688 120.488281 74.542969 120.703125 C 74.027344 120.914062 73.539062 121.175781 73.078125 121.484375 C 72.617188 121.792969 72.1875 122.144531 71.796875 122.535156 C 71.402344 122.929688 71.050781 123.355469 70.742188 123.820312 C 70.433594 124.28125 70.175781 124.769531 69.960938 125.28125 C 69.75 125.792969 69.585938 126.324219 69.476562 126.867188 C 69.371094 127.414062 69.316406 127.964844 69.3125 128.519531 L 69.3125 141.738281 L 43.058594 141.738281 L 43.058594 135.558594 C 43.550781 135.378906 44.019531 135.144531 44.460938 134.851562 C 44.902344 134.5625 45.300781 134.226562 45.664062 133.84375 C 46.023438 133.457031 46.335938 133.039062 46.601562 132.582031 C 46.863281 132.125 47.070312 131.644531 47.222656 131.136719 C 47.375 130.632812 47.464844 130.117188 47.496094 129.589844 C 47.523438 129.0625 47.496094 128.539062 47.402344 128.019531 C 47.3125 127.503906 47.160156 127 46.953125 126.515625 C 46.742188 126.03125 46.480469 125.578125 46.164062 125.15625 C 45.851562 124.734375 45.492188 124.351562 45.085938 124.011719 C 44.683594 123.675781 44.246094 123.386719 43.773438 123.148438 C 43.300781 122.914062 42.808594 122.734375 42.296875 122.613281 C 41.785156 122.492188 41.261719 122.429688 40.734375 122.429688 C 40.207031 122.429688 39.6875 122.492188 39.175781 122.613281 C 38.664062 122.734375 38.171875 122.914062 37.699219 123.148438 C 37.226562 123.386719 36.789062 123.675781 36.386719 124.011719 C 35.980469 124.351562 35.621094 124.734375 35.308594 125.15625 C 34.992188 125.578125 34.730469 126.03125 34.519531 126.515625 C 34.3125 127 34.160156 127.503906 34.070312 128.023438 C 33.976562 128.539062 33.945312 129.0625 33.976562 129.589844 C 34.007812 130.117188 34.097656 130.632812 34.25 131.136719 C 34.402344 131.644531 34.609375 132.125 34.871094 132.582031 C 35.132812 133.039062 35.445312 133.457031 35.808594 133.84375 C 36.171875 134.226562 36.570312 134.5625 37.011719 134.851562 C 37.453125 135.144531 37.917969 135.378906 38.414062 135.558594 L 38.414062 141.738281 L 6.0625 141.738281 C 5.753906 141.738281 5.460938 141.796875 5.175781 141.917969 C 4.890625 142.035156 4.640625 142.203125 4.421875 142.417969 C 4.203125 142.636719 4.035156 142.886719 3.917969 143.171875 C 3.800781 143.457031 3.742188 143.753906 3.742188 144.0625 C 3.742188 144.367188 3.800781 144.664062 3.917969 144.949219 C 4.035156 145.234375 4.203125 145.484375 4.421875 145.703125 C 4.640625 145.917969 4.890625 146.085938 5.175781 146.203125 C 5.460938 146.324219 5.753906 146.382812 6.0625 146.382812 L 38.414062 146.382812 L 38.414062 164.460938 C 38.414062 165.039062 38.472656 165.613281 38.585938 166.179688 C 38.699219 166.746094 38.867188 167.296875 39.089844 167.832031 C 39.308594 168.367188 39.582031 168.871094 39.902344 169.355469 C 40.226562 169.835938 40.589844 170.28125 41 170.6875 C 41.410156 171.097656 41.851562 171.460938 42.335938 171.785156 C 42.816406 172.105469 43.324219 172.375 43.855469 172.597656 C 44.390625 172.820312 44.941406 172.988281 45.507812 173.101562 C 46.078125 173.214844 46.648438 173.269531 47.226562 173.269531 L 69.316406 173.269531 L 69.316406 179.398438 C 69.316406 179.957031 69.371094 180.507812 69.480469 181.050781 C 69.585938 181.59375 69.75 182.125 69.960938 182.636719 C 70.175781 183.152344 70.433594 183.640625 70.742188 184.101562 C 71.054688 184.5625 71.402344 184.988281 71.796875 185.382812 C 72.191406 185.777344 72.617188 186.125 73.078125 186.433594 C 73.539062 186.746094 74.027344 187.003906 74.542969 187.21875 C 75.054688 187.429688 75.582031 187.59375 76.128906 187.699219 C 76.671875 187.808594 77.222656 187.863281 77.78125 187.863281 L 113.480469 187.863281 C 114.035156 187.863281 114.585938 187.808594 115.132812 187.699219 C 115.675781 187.59375 116.207031 187.429688 116.71875 187.21875 C 117.230469 187.003906 117.71875 186.746094 118.179688 186.433594 C 118.644531 186.125 119.070312 185.777344 119.464844 185.382812 C 119.855469 184.988281 120.207031 184.5625 120.515625 184.101562 C 120.824219 183.636719 121.085938 183.152344 121.300781 182.636719 C 121.511719 182.125 121.671875 181.59375 121.78125 181.050781 C 121.890625 180.507812 121.945312 179.957031 121.945312 179.398438 L 121.945312 173.269531 L 151.546875 173.269531 C 152.125 173.269531 152.699219 173.214844 153.265625 173.101562 C 153.832031 172.988281 154.382812 172.820312 154.917969 172.597656 C 155.449219 172.375 155.957031 172.105469 156.441406 171.78125 C 156.921875 171.460938 157.363281 171.097656 157.773438 170.6875 C 158.183594 170.277344 158.546875 169.832031 158.871094 169.351562 C 159.191406 168.871094 159.460938 168.363281 159.683594 167.832031 C 159.90625 167.296875 160.074219 166.746094 160.1875 166.179688 C 160.300781 165.609375 160.355469 165.039062 160.359375 164.460938 L 160.359375 146.382812 L 185.195312 146.382812 C 185.503906 146.382812 185.800781 146.324219 186.085938 146.203125 C 186.371094 146.085938 186.621094 145.917969 186.839844 145.703125 C 187.054688 145.484375 187.222656 145.234375 187.339844 144.949219 C 187.457031 144.664062 187.519531 144.367188 187.519531 144.0625 C 187.519531 143.753906 187.457031 143.457031 187.339844 143.171875 C 187.222656 142.886719 187.054688 142.636719 186.839844 142.417969 C 186.621094 142.203125 186.371094 142.035156 186.085938 141.917969 C 185.800781 141.796875 185.503906 141.738281 185.195312 141.738281 Z M 158.035156 97.113281 C 158.316406 97.113281 158.589844 97.167969 158.851562 97.277344 C 159.109375 97.386719 159.339844 97.539062 159.539062 97.738281 C 159.738281 97.9375 159.894531 98.167969 160 98.429688 C 160.109375 98.6875 160.164062 98.960938 160.164062 99.242188 C 160.164062 99.523438 160.109375 99.796875 160 100.058594 C 159.894531 100.316406 159.738281 100.546875 159.539062 100.746094 C 159.339844 100.945312 159.109375 101.101562 158.851562 101.207031 C 158.589844 101.316406 158.316406 101.371094 158.035156 101.371094 C 157.753906 101.371094 157.484375 101.316406 157.222656 101.207031 C 156.960938 101.101562 156.730469 100.945312 156.53125 100.746094 C 156.332031 100.546875 156.179688 100.316406 156.070312 100.058594 C 155.960938 99.796875 155.910156 99.523438 155.910156 99.242188 C 155.910156 98.960938 155.964844 98.6875 156.070312 98.429688 C 156.179688 98.167969 156.332031 97.9375 156.53125 97.738281 C 156.730469 97.539062 156.960938 97.386719 157.222656 97.277344 C 157.484375 97.167969 157.753906 97.117188 158.035156 97.113281 Z M 40.734375 127.082031 C 41.019531 127.082031 41.289062 127.136719 41.550781 127.242188 C 41.8125 127.351562 42.042969 127.503906 42.242188 127.703125 C 42.441406 127.902344 42.59375 128.132812 42.703125 128.394531 C 42.808594 128.65625 42.863281 128.925781 42.863281 129.207031 C 42.863281 129.492188 42.808594 129.761719 42.703125 130.023438 C 42.59375 130.285156 42.441406 130.511719 42.242188 130.714844 C 42.042969 130.914062 41.8125 131.066406 41.550781 131.175781 C 41.289062 131.28125 41.019531 131.335938 40.734375 131.335938 C 40.453125 131.335938 40.183594 131.28125 39.921875 131.175781 C 39.660156 131.066406 39.429688 130.914062 39.230469 130.714844 C 39.03125 130.511719 38.878906 130.285156 38.769531 130.023438 C 38.664062 129.761719 38.609375 129.492188 38.609375 129.207031 C 38.609375 128.925781 38.664062 128.65625 38.769531 128.394531 C 38.878906 128.132812 39.03125 127.90625 39.230469 127.703125 C 39.433594 127.503906 39.660156 127.351562 39.921875 127.242188 C 40.183594 127.136719 40.453125 127.082031 40.734375 127.082031 Z M 132.792969 62.660156 C 132.792969 62.398438 132.816406 62.136719 132.867188 61.875 C 132.921875 61.617188 132.996094 61.363281 133.097656 61.121094 C 133.199219 60.875 133.324219 60.644531 133.46875 60.421875 C 133.617188 60.203125 133.785156 60 133.972656 59.8125 C 134.160156 59.625 134.363281 59.457031 134.582031 59.3125 C 134.800781 59.164062 135.035156 59.039062 135.277344 58.9375 C 135.523438 58.835938 135.777344 58.761719 136.035156 58.710938 C 136.292969 58.65625 136.554688 58.632812 136.820312 58.632812 C 137.085938 58.632812 137.347656 58.65625 137.605469 58.710938 C 137.867188 58.761719 138.117188 58.835938 138.363281 58.9375 C 138.609375 59.039062 138.839844 59.164062 139.058594 59.3125 C 139.28125 59.457031 139.484375 59.625 139.671875 59.8125 C 139.859375 60 140.023438 60.203125 140.171875 60.421875 C 140.320312 60.644531 140.441406 60.875 140.542969 61.121094 C 140.644531 61.363281 140.722656 61.617188 140.773438 61.875 C 140.824219 62.136719 140.851562 62.398438 140.851562 62.660156 C 140.851562 62.925781 140.824219 63.1875 140.773438 63.449219 C 140.722656 63.707031 140.644531 63.960938 140.542969 64.203125 C 140.441406 64.449219 140.320312 64.679688 140.171875 64.898438 C 140.023438 65.121094 139.859375 65.324219 139.671875 65.511719 C 139.484375 65.699219 139.28125 65.863281 139.058594 66.011719 C 138.839844 66.160156 138.609375 66.285156 138.363281 66.382812 C 138.121094 66.484375 137.867188 66.5625 137.609375 66.613281 C 137.347656 66.664062 137.085938 66.691406 136.820312 66.691406 C 136.558594 66.691406 136.296875 66.664062 136.035156 66.613281 C 135.777344 66.5625 135.523438 66.484375 135.28125 66.382812 C 135.035156 66.28125 134.804688 66.15625 134.582031 66.011719 C 134.363281 65.863281 134.160156 65.695312 133.972656 65.511719 C 133.785156 65.324219 133.617188 65.121094 133.472656 64.898438 C 133.324219 64.679688 133.199219 64.449219 133.097656 64.203125 C 133 63.957031 132.921875 63.707031 132.871094 63.449219 C 132.816406 63.1875 132.792969 62.925781 132.792969 62.660156 Z M 152.054688 68.785156 L 162.242188 66.90625 C 162.972656 66.773438 163.691406 66.828125 164.390625 67.074219 C 165.09375 67.316406 165.691406 67.71875 166.179688 68.273438 L 181.832031 86.152344 C 182.464844 86.875 182.8125 87.71875 182.867188 88.679688 L 148.128906 68.625 C 149.425781 68.976562 150.734375 69.027344 152.054688 68.785156 Z M 128.269531 38.179688 C 127.789062 37.613281 127.480469 36.964844 127.339844 36.234375 C 127.199219 35.503906 127.25 34.785156 127.488281 34.082031 L 135.144531 11.589844 C 135.453125 10.679688 136.011719 9.957031 136.816406 9.429688 L 136.816406 49.542969 C 136.472656 48.246094 135.863281 47.085938 134.992188 46.0625 Z M 123.84375 72.199219 L 120.378906 81.960938 C 120.128906 82.664062 119.722656 83.253906 119.160156 83.742188 C 118.597656 84.226562 117.953125 84.542969 117.222656 84.691406 L 93.914062 89.304688 C 92.972656 89.492188 92.070312 89.371094 91.207031 88.9375 L 125.945312 68.878906 C 124.996094 69.828125 124.292969 70.933594 123.84375 72.199219 Z M 136.820312 84.433594 L 140.691406 141.738281 L 132.953125 141.738281 Z M 85.734375 113.625 L 105.527344 113.625 L 105.527344 120.054688 L 85.734375 120.054688 Z M 47.226562 168.628906 C 46.953125 168.628906 46.683594 168.601562 46.414062 168.546875 C 46.144531 168.496094 45.886719 168.414062 45.632812 168.308594 C 45.378906 168.207031 45.140625 168.078125 44.914062 167.925781 C 44.683594 167.773438 44.472656 167.601562 44.28125 167.40625 C 44.085938 167.214844 43.914062 167.003906 43.761719 166.777344 C 43.609375 166.546875 43.480469 166.308594 43.375 166.054688 C 43.269531 165.800781 43.191406 165.542969 43.136719 165.273438 C 43.085938 165.003906 43.058594 164.734375 43.058594 164.460938 L 43.058594 146.382812 L 69.3125 146.382812 L 69.3125 168.628906 Z M 117.304688 179.398438 C 117.304688 179.90625 117.207031 180.394531 117.011719 180.863281 C 116.816406 181.332031 116.542969 181.742188 116.183594 182.101562 C 115.824219 182.460938 115.410156 182.738281 114.941406 182.929688 C 114.476562 183.125 113.988281 183.222656 113.480469 183.222656 L 77.777344 183.222656 C 77.273438 183.222656 76.785156 183.125 76.316406 182.929688 C 75.847656 182.738281 75.4375 182.460938 75.078125 182.101562 C 74.71875 181.742188 74.441406 181.332031 74.25 180.863281 C 74.054688 180.394531 73.957031 179.90625 73.957031 179.398438 L 73.957031 128.519531 C 73.957031 128.011719 74.054688 127.523438 74.25 127.058594 C 74.441406 126.589844 74.71875 126.175781 75.078125 125.816406 C 75.4375 125.460938 75.847656 125.183594 76.316406 124.988281 C 76.785156 124.792969 77.273438 124.699219 77.777344 124.695312 L 113.480469 124.695312 C 113.988281 124.699219 114.476562 124.792969 114.941406 124.988281 C 115.410156 125.183594 115.824219 125.460938 116.183594 125.816406 C 116.539062 126.175781 116.816406 126.589844 117.011719 127.058594 C 117.207031 127.523438 117.300781 128.011719 117.304688 128.519531 Z M 155.714844 164.460938 C 155.714844 164.734375 155.6875 165.003906 155.632812 165.273438 C 155.582031 165.542969 155.5 165.800781 155.398438 166.054688 C 155.292969 166.308594 155.164062 166.546875 155.011719 166.773438 C 154.859375 167.003906 154.6875 167.210938 154.492188 167.40625 C 154.300781 167.601562 154.089844 167.773438 153.863281 167.925781 C 153.632812 168.078125 153.394531 168.207031 153.140625 168.308594 C 152.886719 168.414062 152.628906 168.496094 152.359375 168.546875 C 152.089844 168.601562 151.820312 168.628906 151.546875 168.628906 L 121.945312 168.628906 L 121.945312 146.382812 L 155.714844 146.382812 Z M 155.714844 164.460938 " fill-opacity="1" fill-rule="nonzero"/></g><path fill="#ffffff" d="M 21.949219 72.515625 L 34.925781 72.515625 C 35.199219 72.515625 35.460938 72.46875 35.714844 72.378906 C 35.96875 72.285156 36.199219 72.152344 36.410156 71.980469 C 36.617188 71.808594 36.789062 71.605469 36.929688 71.371094 C 37.066406 71.140625 37.160156 70.890625 37.210938 70.625 L 39.648438 57.644531 C 39.714844 57.308594 39.703125 56.96875 39.617188 56.636719 C 39.527344 56.300781 39.375 56 39.15625 55.734375 C 38.933594 55.46875 38.667969 55.261719 38.355469 55.117188 C 38.042969 54.96875 37.710938 54.894531 37.367188 54.894531 L 24.390625 54.894531 C 24.117188 54.894531 23.855469 54.941406 23.601562 55.035156 C 23.347656 55.125 23.117188 55.257812 22.90625 55.429688 C 22.699219 55.601562 22.527344 55.804688 22.386719 56.039062 C 22.25 56.273438 22.15625 56.523438 22.105469 56.789062 L 19.667969 69.765625 C 19.601562 70.105469 19.613281 70.441406 19.699219 70.777344 C 19.789062 71.109375 19.941406 71.410156 20.160156 71.675781 C 20.382812 71.941406 20.648438 72.148438 20.960938 72.296875 C 21.273438 72.441406 21.605469 72.515625 21.949219 72.515625 Z M 26.316406 59.539062 L 34.570312 59.539062 L 33 67.871094 L 24.746094 67.871094 Z M 26.316406 59.539062 " fill-opacity="1" fill-rule="nonzero"/><path fill="#ffffff" d="M 38.949219 71.675781 C 39.414062 72.234375 40.011719 72.515625 40.738281 72.515625 L 53.714844 72.515625 C 53.984375 72.515625 54.25 72.46875 54.503906 72.378906 C 54.757812 72.285156 54.988281 72.152344 55.199219 71.980469 C 55.40625 71.808594 55.578125 71.605469 55.714844 71.371094 C 55.855469 71.140625 55.945312 70.890625 55.996094 70.625 L 58.4375 57.644531 C 58.503906 57.308594 58.492188 56.96875 58.402344 56.636719 C 58.316406 56.300781 58.164062 56 57.941406 55.734375 C 57.722656 55.46875 57.457031 55.261719 57.144531 55.117188 C 56.832031 54.96875 56.5 54.894531 56.15625 54.894531 L 43.179688 54.894531 C 42.90625 54.894531 42.644531 54.941406 42.390625 55.035156 C 42.136719 55.125 41.902344 55.257812 41.695312 55.429688 C 41.488281 55.601562 41.3125 55.804688 41.175781 56.039062 C 41.039062 56.273438 40.945312 56.523438 40.894531 56.789062 L 38.453125 69.765625 C 38.320312 70.480469 38.484375 71.117188 38.949219 71.675781 Z M 45.101562 59.539062 L 53.355469 59.539062 L 51.789062 67.875 L 43.535156 67.875 Z M 45.101562 59.539062 " fill-opacity="1" fill-rule="nonzero"/><path fill="#ffffff" d="M 57.738281 71.675781 C 58.203125 72.234375 58.800781 72.515625 59.527344 72.515625 L 72.503906 72.515625 C 72.773438 72.515625 73.035156 72.46875 73.292969 72.378906 C 73.546875 72.285156 73.777344 72.152344 73.984375 71.980469 C 74.195312 71.808594 74.367188 71.605469 74.503906 71.371094 C 74.640625 71.140625 74.734375 70.890625 74.785156 70.625 L 77.226562 57.644531 C 77.289062 57.308594 77.277344 56.96875 77.191406 56.636719 C 77.105469 56.300781 76.953125 56 76.730469 55.734375 C 76.511719 55.46875 76.246094 55.261719 75.933594 55.117188 C 75.617188 54.96875 75.289062 54.894531 74.945312 54.894531 L 61.964844 54.894531 C 61.695312 54.894531 61.433594 54.941406 61.179688 55.035156 C 60.921875 55.125 60.691406 55.257812 60.484375 55.429688 C 60.273438 55.601562 60.101562 55.804688 59.964844 56.039062 C 59.828125 56.273438 59.734375 56.523438 59.683594 56.789062 L 57.242188 69.765625 C 57.109375 70.480469 57.273438 71.117188 57.738281 71.675781 Z M 63.890625 59.539062 L 72.144531 59.539062 L 70.578125 67.875 L 62.320312 67.875 Z M 63.890625 59.539062 " fill-opacity="1" fill-rule="nonzero"/><path fill="#ffffff" d="M 18.414062 91.304688 L 31.390625 91.304688 C 31.664062 91.304688 31.925781 91.257812 32.179688 91.167969 C 32.433594 91.074219 32.667969 90.941406 32.875 90.769531 C 33.082031 90.597656 33.257812 90.394531 33.394531 90.160156 C 33.53125 89.925781 33.625 89.679688 33.675781 89.410156 L 36.117188 76.433594 C 36.179688 76.09375 36.167969 75.757812 36.082031 75.421875 C 35.996094 75.089844 35.839844 74.789062 35.621094 74.523438 C 35.398438 74.257812 35.132812 74.050781 34.820312 73.902344 C 34.507812 73.757812 34.179688 73.683594 33.832031 73.683594 L 20.855469 73.683594 C 20.585938 73.683594 20.324219 73.730469 20.066406 73.820312 C 19.8125 73.914062 19.582031 74.046875 19.375 74.21875 C 19.164062 74.390625 18.992188 74.59375 18.855469 74.828125 C 18.71875 75.0625 18.625 75.308594 18.574219 75.578125 L 16.132812 88.554688 C 16.070312 88.894531 16.082031 89.230469 16.167969 89.566406 C 16.253906 89.898438 16.40625 90.199219 16.628906 90.464844 C 16.847656 90.730469 17.113281 90.9375 17.429688 91.085938 C 17.742188 91.230469 18.070312 91.304688 18.414062 91.304688 Z M 22.78125 78.328125 L 31.035156 78.328125 L 29.46875 86.660156 L 21.214844 86.660156 Z M 22.78125 78.328125 " fill-opacity="1" fill-rule="nonzero"/><path fill="#ffffff" d="M 37.203125 91.304688 L 50.183594 91.304688 C 50.453125 91.304688 50.714844 91.257812 50.96875 91.167969 C 51.222656 91.074219 51.457031 90.941406 51.664062 90.769531 C 51.871094 90.597656 52.046875 90.394531 52.183594 90.160156 C 52.320312 89.925781 52.414062 89.679688 52.464844 89.410156 L 54.90625 76.433594 C 54.96875 76.09375 54.957031 75.757812 54.871094 75.421875 C 54.785156 75.089844 54.628906 74.789062 54.410156 74.523438 C 54.1875 74.257812 53.921875 74.050781 53.609375 73.902344 C 53.296875 73.757812 52.96875 73.683594 52.621094 73.683594 L 39.644531 73.683594 C 39.375 73.683594 39.109375 73.730469 38.855469 73.820312 C 38.601562 73.914062 38.371094 74.046875 38.160156 74.21875 C 37.953125 74.390625 37.78125 74.59375 37.644531 74.828125 C 37.503906 75.0625 37.410156 75.308594 37.363281 75.578125 L 34.921875 88.554688 C 34.859375 88.894531 34.867188 89.230469 34.957031 89.566406 C 35.042969 89.898438 35.195312 90.199219 35.417969 90.464844 C 35.636719 90.730469 35.902344 90.9375 36.214844 91.085938 C 36.527344 91.230469 36.859375 91.304688 37.203125 91.304688 Z M 41.570312 78.328125 L 49.824219 78.328125 L 48.257812 86.660156 L 40 86.660156 Z M 41.570312 78.328125 " fill-opacity="1" fill-rule="nonzero"/><path fill="#ffffff" d="M 71.410156 73.683594 L 58.433594 73.683594 C 58.164062 73.683594 57.898438 73.730469 57.644531 73.820312 C 57.390625 73.914062 57.160156 74.046875 56.949219 74.21875 C 56.742188 74.390625 56.570312 74.59375 56.429688 74.828125 C 56.292969 75.0625 56.199219 75.308594 56.152344 75.578125 L 53.710938 88.554688 C 53.644531 88.894531 53.65625 89.230469 53.742188 89.566406 C 53.832031 89.898438 53.984375 90.199219 54.203125 90.464844 C 54.425781 90.730469 54.691406 90.9375 55.003906 91.085938 C 55.316406 91.230469 55.644531 91.304688 55.992188 91.304688 L 68.96875 91.304688 C 69.238281 91.304688 69.503906 91.257812 69.757812 91.167969 C 70.011719 91.074219 70.242188 90.941406 70.453125 90.769531 C 70.660156 90.597656 70.832031 90.394531 70.972656 90.160156 C 71.109375 89.925781 71.203125 89.679688 71.25 89.410156 L 73.691406 76.433594 C 73.757812 76.09375 73.746094 75.757812 73.660156 75.421875 C 73.570312 75.089844 73.417969 74.789062 73.199219 74.523438 C 72.976562 74.257812 72.710938 74.050781 72.398438 73.902344 C 72.085938 73.757812 71.757812 73.683594 71.410156 73.683594 Z M 67.042969 86.660156 L 58.789062 86.660156 L 60.359375 78.328125 L 68.613281 78.328125 Z M 67.042969 86.660156 " fill-opacity="1" fill-rule="nonzero"/><path fill="#ffffff" d="M 14.882812 110.09375 L 27.859375 110.09375 C 28.128906 110.09375 28.394531 110.046875 28.648438 109.957031 C 28.902344 109.863281 29.132812 109.730469 29.34375 109.558594 C 29.550781 109.386719 29.722656 109.183594 29.859375 108.949219 C 30 108.714844 30.089844 108.464844 30.140625 108.199219 L 32.582031 95.222656 C 32.648438 94.882812 32.636719 94.546875 32.546875 94.210938 C 32.460938 93.878906 32.308594 93.578125 32.085938 93.3125 C 31.867188 93.046875 31.601562 92.839844 31.289062 92.691406 C 30.976562 92.546875 30.644531 92.472656 30.300781 92.472656 L 17.324219 92.472656 C 17.050781 92.472656 16.789062 92.519531 16.535156 92.609375 C 16.28125 92.703125 16.046875 92.835938 15.839844 93.007812 C 15.632812 93.179688 15.457031 93.382812 15.320312 93.617188 C 15.183594 93.847656 15.089844 94.097656 15.039062 94.363281 L 12.597656 107.34375 C 12.535156 107.683594 12.546875 108.019531 12.632812 108.351562 C 12.71875 108.6875 12.875 108.988281 13.09375 109.253906 C 13.316406 109.519531 13.582031 109.726562 13.894531 109.871094 C 14.207031 110.019531 14.535156 110.09375 14.882812 110.09375 Z M 19.246094 97.113281 L 27.503906 97.113281 L 25.933594 105.449219 L 17.679688 105.449219 Z M 19.246094 97.113281 " fill-opacity="1" fill-rule="nonzero"/><path fill="#ffffff" d="M 50.875 93.3125 C 50.410156 92.753906 49.816406 92.472656 49.089844 92.472656 L 36.109375 92.472656 C 35.839844 92.472656 35.578125 92.519531 35.324219 92.609375 C 35.066406 92.703125 34.835938 92.835938 34.628906 93.007812 C 34.417969 93.179688 34.246094 93.382812 34.109375 93.617188 C 33.972656 93.847656 33.878906 94.097656 33.828125 94.363281 L 31.386719 107.34375 C 31.324219 107.683594 31.335938 108.019531 31.421875 108.355469 C 31.507812 108.6875 31.660156 108.988281 31.882812 109.253906 C 32.101562 109.519531 32.371094 109.726562 32.683594 109.871094 C 32.996094 110.019531 33.324219 110.09375 33.667969 110.09375 L 46.648438 110.09375 C 46.917969 110.09375 47.179688 110.046875 47.4375 109.957031 C 47.691406 109.863281 47.921875 109.730469 48.128906 109.558594 C 48.339844 109.386719 48.511719 109.183594 48.648438 108.949219 C 48.785156 108.714844 48.878906 108.46875 48.929688 108.199219 L 51.371094 95.222656 C 51.503906 94.507812 51.339844 93.871094 50.875 93.3125 Z M 44.722656 105.449219 L 36.46875 105.449219 L 38.035156 97.113281 L 46.289062 97.113281 Z M 44.722656 105.449219 " fill-opacity="1" fill-rule="nonzero"/><path fill="#ffffff" d="M 67.878906 92.472656 L 54.898438 92.472656 C 54.628906 92.472656 54.367188 92.519531 54.113281 92.609375 C 53.855469 92.703125 53.625 92.835938 53.417969 93.007812 C 53.207031 93.179688 53.035156 93.382812 52.898438 93.617188 C 52.761719 93.847656 52.667969 94.097656 52.617188 94.363281 L 50.175781 107.34375 C 50.113281 107.683594 50.125 108.019531 50.210938 108.351562 C 50.296875 108.6875 50.449219 108.988281 50.671875 109.253906 C 50.890625 109.519531 51.160156 109.726562 51.472656 109.871094 C 51.785156 110.019531 52.113281 110.09375 52.457031 110.09375 L 65.4375 110.09375 C 65.707031 110.09375 65.96875 110.046875 66.222656 109.957031 C 66.480469 109.863281 66.710938 109.730469 66.917969 109.558594 C 67.128906 109.386719 67.300781 109.183594 67.4375 108.949219 C 67.574219 108.714844 67.667969 108.464844 67.71875 108.199219 L 70.160156 95.222656 C 70.222656 94.882812 70.210938 94.546875 70.125 94.210938 C 70.039062 93.878906 69.886719 93.578125 69.664062 93.3125 C 69.445312 93.046875 69.175781 92.839844 68.863281 92.691406 C 68.550781 92.546875 68.222656 92.472656 67.878906 92.472656 Z M 63.511719 105.449219 L 55.257812 105.449219 L 56.824219 97.113281 L 65.078125 97.113281 Z M 63.511719 105.449219 " fill-opacity="1" fill-rule="nonzero"/><path fill="#ffffff" d="M 9.792969 117.515625 L 67.734375 117.515625 C 68.527344 117.496094 69.296875 117.34375 70.039062 117.0625 C 70.785156 116.78125 71.460938 116.382812 72.070312 115.875 C 72.679688 115.363281 73.1875 114.765625 73.59375 114.085938 C 74 113.402344 74.285156 112.671875 74.445312 111.894531 L 85.34375 53.953125 C 85.507812 53.148438 85.492188 52.34375 85.296875 51.542969 C 85.105469 50.742188 84.75 50.023438 84.230469 49.382812 C 83.710938 48.765625 83.082031 48.292969 82.347656 47.957031 C 81.609375 47.625 80.839844 47.460938 80.03125 47.472656 L 22.09375 47.472656 C 21.296875 47.496094 20.527344 47.644531 19.785156 47.925781 C 19.042969 48.207031 18.367188 48.605469 17.757812 49.113281 C 17.148438 49.625 16.640625 50.222656 16.230469 50.902344 C 15.824219 51.585938 15.539062 52.316406 15.378906 53.09375 L 4.484375 111.035156 C 4.320312 111.84375 4.332031 112.644531 4.527344 113.445312 C 4.722656 114.246094 5.078125 114.964844 5.59375 115.605469 C 6.117188 116.222656 6.746094 116.695312 7.480469 117.03125 C 8.214844 117.363281 8.984375 117.527344 9.792969 117.515625 Z M 9.046875 111.894531 L 19.941406 53.953125 C 20.0625 53.445312 20.324219 53.023438 20.71875 52.683594 C 21.113281 52.347656 21.574219 52.15625 22.09375 52.117188 L 80.03125 52.117188 C 80.277344 52.097656 80.484375 52.175781 80.660156 52.347656 C 80.8125 52.578125 80.855469 52.828125 80.78125 53.097656 L 69.882812 111.035156 C 69.761719 111.542969 69.503906 111.964844 69.105469 112.304688 C 68.710938 112.640625 68.253906 112.832031 67.734375 112.871094 L 9.792969 112.871094 C 9.550781 112.890625 9.339844 112.8125 9.167969 112.640625 C 9.011719 112.410156 8.972656 112.160156 9.046875 111.894531 Z M 9.046875 111.894531 " fill-opacity="1" fill-rule="nonzero"/></svg>