<svg xmlns="http://www.w3.org/2000/svg" xmlns:xlink="http://www.w3.org/1999/xlink" width="256" zoomAndPan="magnify" viewBox="0 0 192 191.999996" height="256" preserveAspectRatio="xMidYMid meet" version="1.0"><defs><clipPath id="4c15e4207e"><path d="M 19.199219 2.804688 L 169.949219 2.804688 L 169.949219 189.554688 L 19.199219 189.554688 Z M 19.199219 2.804688 " clip-rule="nonzero"/></clipPath></defs><g clip-path="url(#4c15e4207e)"><path fill="#ffffff" d="M 157.835938 2.804688 C 161.078125 2.804688 164.191406 4.09375 166.484375 6.386719 C 168.777344 8.679688 170.066406 11.789062 170.066406 15.03125 L 170.066406 176.964844 C 170.066406 180.207031 168.777344 183.316406 166.484375 185.609375 C 164.191406 187.902344 161.078125 189.191406 157.835938 189.191406 L 31.535156 189.191406 C 28.292969 189.191406 25.183594 187.902344 22.890625 185.609375 C 20.597656 183.316406 19.308594 180.207031 19.308594 176.964844 L 19.308594 15.03125 C 19.308594 11.789062 20.597656 8.679688 22.890625 6.386719 C 25.183594 4.09375 28.292969 2.804688 31.535156 2.804688 Z M 157.835938 8.085938 L 31.535156 8.085938 C 29.695312 8.085938 27.925781 8.816406 26.625 10.121094 C 25.320312 11.421875 24.589844 13.191406 24.589844 15.03125 L 24.589844 176.964844 C 24.589844 178.804688 25.320312 180.570312 26.625 181.875 C 27.925781 183.175781 29.695312 183.910156 31.535156 183.910156 L 157.835938 183.910156 C 159.679688 183.910156 161.445312 183.175781 162.75 181.875 C 164.050781 180.570312 164.78125 178.804688 164.78125 176.964844 L 164.78125 15.03125 C 164.78125 13.191406 164.050781 11.421875 162.75 10.121094 C 161.445312 8.816406 159.679688 8.085938 157.835938 8.085938 Z M 101.445312 128.835938 L 99.105469 146.511719 L 108.375 151.054688 C 109.09375 151.40625 109.613281 152.066406 109.789062 152.847656 C 109.964844 153.628906 109.773438 154.449219 109.273438 155.074219 L 89.648438 179.59375 C 88.851562 180.589844 87.460938 180.875 86.335938 180.269531 C 85.214844 179.667969 84.683594 178.347656 85.074219 177.136719 L 90.769531 159.410156 L 81.230469 155.816406 C 80.476562 155.53125 79.890625 154.917969 79.644531 154.148438 C 79.398438 153.382812 79.519531 152.542969 79.96875 151.875 L 96.632812 127.019531 C 97.316406 126 98.609375 125.585938 99.757812 126.019531 C 100.90625 126.453125 101.605469 127.617188 101.445312 128.835938 Z M 94.726562 139.347656 L 86.210938 152.046875 L 94.984375 155.355469 C 96.304688 155.851562 97 157.292969 96.570312 158.632812 L 94.496094 165.085938 C 94.496094 165.085938 103.089844 154.347656 103.089844 154.347656 L 95.078125 150.421875 C 94.058594 149.921875 93.472656 148.828125 93.621094 147.703125 Z M 35.488281 16.34375 L 153.882812 16.34375 C 155.34375 16.34375 156.523438 17.527344 156.523438 18.984375 L 156.523438 117.386719 C 156.523438 118.84375 155.34375 120.027344 153.882812 120.027344 L 35.488281 120.027344 C 34.03125 120.027344 32.847656 118.84375 32.847656 117.386719 L 32.847656 18.984375 C 32.847656 17.527344 34.03125 16.34375 35.488281 16.34375 Z M 38.128906 21.625 C 38.128906 21.625 38.128906 99.324219 38.128906 114.746094 C 38.128906 114.746094 151.242188 114.746094 151.242188 114.746094 C 151.242188 100.773438 151.242188 35.597656 151.242188 21.625 Z M 114.683594 86.691406 C 119.820312 86.691406 123.988281 90.863281 123.988281 95.996094 C 123.988281 101.132812 119.820312 105.304688 114.683594 105.304688 C 109.546875 105.304688 105.378906 101.132812 105.378906 95.996094 C 105.378906 90.863281 109.546875 86.691406 114.683594 86.691406 Z M 114.683594 91.972656 C 112.464844 91.972656 110.660156 93.777344 110.660156 95.996094 C 110.660156 98.21875 112.464844 100.019531 114.683594 100.019531 C 116.90625 100.019531 118.707031 98.21875 118.707031 95.996094 C 118.707031 93.777344 116.90625 91.972656 114.683594 91.972656 Z M 94.6875 86.691406 C 99.820312 86.691406 103.992188 90.863281 103.992188 95.996094 C 103.992188 101.132812 99.820312 105.304688 94.6875 105.304688 C 89.550781 105.304688 85.382812 101.132812 85.382812 95.996094 C 85.382812 90.863281 89.550781 86.691406 94.6875 86.691406 Z M 94.6875 91.972656 C 92.464844 91.972656 90.664062 93.777344 90.664062 95.996094 C 90.664062 98.21875 92.464844 100.019531 94.6875 100.019531 C 96.90625 100.019531 98.710938 98.21875 98.710938 95.996094 C 98.710938 93.777344 96.90625 91.972656 94.6875 91.972656 Z M 58.429688 79.464844 C 56.972656 79.464844 55.789062 78.28125 55.789062 76.824219 C 55.789062 75.367188 56.972656 74.183594 58.429688 74.183594 L 67.105469 74.183594 C 68.566406 74.183594 69.75 75.367188 69.75 76.824219 C 69.75 78.28125 68.566406 79.464844 67.105469 79.464844 Z M 107.414062 79.464844 C 105.957031 79.464844 104.773438 78.28125 104.773438 76.824219 C 104.773438 75.367188 105.957031 74.183594 107.414062 74.183594 L 116.089844 74.183594 C 117.550781 74.183594 118.734375 75.367188 118.734375 76.824219 C 118.734375 78.28125 117.550781 79.464844 116.089844 79.464844 Z M 123.742188 79.464844 C 122.285156 79.464844 121.101562 78.28125 121.101562 76.824219 C 121.101562 75.367188 122.285156 74.183594 123.742188 74.183594 L 132.417969 74.183594 C 133.878906 74.183594 135.0625 75.367188 135.0625 76.824219 C 135.0625 78.28125 133.878906 79.464844 132.417969 79.464844 Z M 74.757812 79.464844 C 73.300781 79.464844 72.117188 78.28125 72.117188 76.824219 C 72.117188 75.367188 73.300781 74.183594 74.757812 74.183594 L 83.433594 74.183594 C 84.894531 74.183594 86.078125 75.367188 86.078125 76.824219 C 86.078125 78.28125 84.894531 79.464844 83.433594 79.464844 Z M 91.085938 79.464844 C 89.628906 79.464844 88.445312 78.28125 88.445312 76.824219 C 88.445312 75.367188 89.628906 74.183594 91.085938 74.183594 L 99.761719 74.183594 C 101.222656 74.183594 102.40625 75.367188 102.40625 76.824219 C 102.40625 78.28125 101.222656 79.464844 99.761719 79.464844 Z M 74.6875 86.691406 C 79.824219 86.691406 83.996094 90.863281 83.996094 95.996094 C 83.996094 101.132812 79.824219 105.304688 74.6875 105.304688 C 69.554688 105.304688 65.382812 101.132812 65.382812 95.996094 C 65.382812 90.863281 69.554688 86.691406 74.6875 86.691406 Z M 74.6875 91.972656 C 72.46875 91.972656 70.664062 93.777344 70.664062 95.996094 C 70.664062 98.21875 72.46875 100.019531 74.6875 100.019531 C 76.910156 100.019531 78.710938 98.21875 78.710938 95.996094 C 78.710938 93.777344 76.910156 91.972656 74.6875 91.972656 Z M 134.011719 64.972656 L 55.359375 64.972656 C 53.902344 64.972656 52.71875 63.792969 52.71875 62.332031 L 52.71875 30 C 52.71875 28.539062 53.902344 27.355469 55.359375 27.355469 L 134.011719 27.355469 C 135.46875 27.355469 136.652344 28.539062 136.652344 30 L 136.652344 62.332031 C 136.652344 63.792969 135.46875 64.972656 134.011719 64.972656 Z M 67.832031 32.640625 C 61.871094 32.640625 58.003906 32.640625 58.003906 32.640625 C 58.003906 32.640625 58.003906 59.691406 58.003906 59.691406 C 58.003906 59.691406 61.871094 59.691406 67.832031 59.691406 Z M 84.210938 32.640625 C 80.265625 32.640625 76.5 32.640625 73.113281 32.640625 L 73.113281 59.691406 C 76.5 59.691406 80.265625 59.691406 84.210938 59.691406 Z M 100.585938 32.640625 C 96.917969 32.640625 93.167969 32.640625 89.492188 32.640625 L 89.492188 59.691406 C 93.167969 59.691406 96.917969 59.691406 100.585938 59.691406 Z M 116.964844 32.640625 C 113.601562 32.640625 109.832031 32.640625 105.871094 32.640625 L 105.871094 59.691406 C 109.832031 59.691406 113.601562 59.691406 116.964844 59.691406 Z M 122.25 59.691406 C 127.804688 59.691406 131.371094 59.691406 131.371094 59.691406 L 131.371094 32.640625 C 131.371094 32.640625 127.804688 32.640625 122.25 32.640625 Z M 122.25 59.691406 " fill-opacity="1" fill-rule="evenodd"/></g></svg>