<?xml version="1.0" encoding="UTF-8"?>
<!DOCTYPE svg PUBLIC "-//W3C//DTD SVG 1.1//EN" "http://www.w3.org/Graphics/SVG/1.1/DTD/svg11.dtd">
<!-- Creator: CorelDRAW X7 -->
<svg xmlns="http://www.w3.org/2000/svg" xml:space="preserve" width="13.5467mm" height="6.0948mm" version="1.1" style="shape-rendering:geometricPrecision; text-rendering:geometricPrecision; image-rendering:optimizeQuality; fill-rule:evenodd; clip-rule:evenodd"
viewBox="0 0 1355 609"
 xmlns:xlink="http://www.w3.org/1999/xlink">
 <defs>
  <style type="text/css">
   <![CDATA[
    .fil1 {fill:#7CAE3E}
    .fil0 {fill:#303E8D}
    .fil2 {fill:#5B5B5B;fill-rule:nonzero}
   ]]>
  </style>
 </defs>
 <g id="Layer_x0020_1">
  <metadata id="CorelCorpID_0Corel-Layer"/>
  <g id="_348737848">
   <path class="fil0" d="M1170 208l56 0 72 107 0 -107 57 0 0 194 -57 0 -71 -107 0 107 -57 0 0 -194zm-181 97c0,19 4,34 11,42 7,9 17,13 30,13 13,0 22,-4 29,-13 7,-8 11,-23 11,-45 0,-18 -4,-31 -11,-39 -7,-9 -17,-13 -30,-13 -12,0 -22,4 -29,13 -7,8 -11,22 -11,42zm-59 0c0,-32 8,-56 26,-74 18,-17 42,-26 73,-26 32,0 57,8 75,26 17,17 26,41 26,72 0,23 -4,41 -12,56 -7,14 -18,26 -33,34 -14,8 -32,12 -53,12 -22,0 -40,-4 -54,-11 -15,-7 -26,-18 -35,-33 -9,-15 -13,-34 -13,-56zm-215 -97l66 0 34 60 33 -60 65 0 -60 94 66 100 -67 0 -38 -63 -38 63 -67 0 67 -101 -61 -93zm-97 0l60 0 0 194 -60 0 0 -194zm-146 83l15 0c11,0 20,-2 24,-6 5,-4 7,-9 7,-16 0,-6 -2,-11 -6,-15 -4,-4 -12,-7 -23,-7l-17 0 0 44zm-60 -83l99 0c22,0 38,5 49,15 11,11 16,25 16,44 0,20 -6,35 -18,46 -11,11 -29,17 -53,17l-33 0 0 72 -60 0 0 -194z"/>
   <path class="fil1" d="M17 264l247 -247c23,-23 59,-23 81,0l89 89c-2,6 -5,13 -8,19 -2,4 -5,7 -7,11l-1 -1c-4,-6 -10,-19 -12,-25 -2,-4 -11,-23 -12,-26 0,6 2,21 3,29 0,10 1,20 1,30 -13,-1 -25,-13 -33,-20 -2,-1 -1,-1 -3,-3 -1,-1 -1,-1 -3,-2l-13 -14c-1,-1 -1,-2 -3,-3l-29 -35c-2,-2 -3,-5 -5,-6 2,7 7,19 10,27 8,22 26,67 20,89 -4,-2 -9,-6 -12,-8 -4,-2 -8,-5 -12,-8 -5,-3 -20,-14 -24,-16 2,5 5,8 8,12 6,8 20,28 24,36 -22,6 -67,-12 -89,-20 -8,-3 -20,-9 -27,-10l52 45c5,5 11,10 16,16 4,5 15,18 15,28 -10,0 -20,-1 -30,-1 -7,-1 -23,-4 -29,-3 4,1 21,9 26,12l20 9c1,1 2,1 3,2l3 2c-8,5 -14,9 -24,12 -19,7 -39,12 -59,15 -5,1 -28,4 -31,6l2 0c0,0 1,1 2,1 1,0 2,0 3,0l24 4c22,4 52,10 72,20 4,3 7,5 11,8 -4,4 -49,24 -52,25 6,0 21,-3 28,-3 11,-1 21,-1 31,-2 -1,13 -13,25 -20,34l-39 36c-8,6 -16,12 -23,18l-1 2c4,-1 9,-4 13,-5 5,-2 9,-4 13,-5 9,-4 18,-7 28,-10 14,-5 46,-15 62,-10 -3,7 -11,17 -15,24 -4,4 -15,19 -17,23 5,-2 8,-5 12,-8 8,-5 28,-20 36,-23 6,22 -12,67 -20,89 -3,8 -8,19 -10,27l34 -41c6,-7 20,-21 27,-27 6,-5 18,-15 28,-16 0,10 -1,20 -1,30 -1,8 -3,24 -3,30 0,-3 10,-22 12,-27l13 -25c2,3 4,6 7,11 3,6 6,12 8,19l-89 89c-22,22 -58,22 -81,0l-247 -248c-23,-22 -23,-58 0,-81z"/>
   <path class="fil2" d="M676 467c0,2 -1,5 -1,7 -1,2 -2,4 -3,6 -2,2 -4,4 -6,5 -2,2 -5,3 -7,4 1,1 3,2 4,4 1,3 2,5 3,9l3 16c0,0 0,1 0,2 0,0 0,1 0,1 0,1 0,1 0,1 0,0 0,1 -1,1 0,0 -1,0 -1,0 -1,0 -2,0 -3,0 -1,0 -2,0 -2,0 -1,0 -1,0 -2,0 0,-1 0,-1 0,-1 0,0 -1,-1 -1,-1l-2 -17c-1,-2 -1,-3 -2,-5 0,-2 -1,-3 -2,-4 -1,-1 -2,-2 -3,-3 -2,0 -4,-1 -6,-1l-6 0 -6 30c0,1 0,1 -1,1 0,0 0,1 0,1 -1,0 -1,0 -2,0 -1,0 -1,0 -2,0 -1,0 -2,0 -2,0 -1,0 -1,0 -2,0 0,0 0,-1 0,-1 -1,0 -1,0 -1,-1l14 -65c0,-1 0,-2 1,-3 1,-1 2,-1 3,-1l16 0c3,0 6,1 8,1 3,1 5,2 7,3 1,1 3,3 4,5 0,2 1,4 1,6zm-10 1c0,-1 -1,-2 -1,-3 0,-1 -1,-2 -2,-3 -1,0 -2,-1 -4,-1 -1,-1 -3,-1 -5,-1l-10 0 -5 24 9 0c3,0 6,-1 8,-2 2,0 4,-2 6,-3 1,-2 2,-3 3,-5 0,-2 1,-4 1,-6zm61 14c0,3 -1,5 -2,7 -1,2 -3,4 -5,5 -3,2 -6,3 -10,4 -4,0 -8,1 -14,1l-5 0c-1,1 -1,2 -1,3 0,1 0,2 0,3 0,4 1,7 3,9 2,2 4,3 9,3 2,0 4,-1 6,-1 2,0 3,-1 5,-1 1,0 2,-1 3,-1 1,-1 1,-1 2,-1 0,0 0,0 1,1 0,0 0,0 0,1 0,0 0,0 0,1 0,0 -1,1 -1,2 0,0 0,1 0,1 0,0 -1,1 -1,1 0,1 -1,1 -2,1 -1,1 -3,1 -4,2 -2,0 -4,0 -5,0 -2,1 -4,1 -6,1 -3,0 -6,-1 -8,-1 -3,-1 -5,-2 -6,-4 -2,-1 -3,-3 -4,-5 -1,-3 -1,-5 -1,-8 0,-3 0,-5 0,-8 1,-3 2,-5 3,-8 1,-3 2,-5 3,-8 2,-2 4,-4 6,-6 2,-2 5,-3 8,-4 2,-2 6,-2 9,-2 3,0 6,0 8,1 2,1 4,2 5,3 1,1 2,2 3,4 1,1 1,3 1,4zm-9 1c0,-2 -1,-3 -2,-4 -2,-2 -4,-2 -7,-2 -2,0 -4,0 -6,1 -2,1 -3,2 -5,3 -1,2 -2,3 -3,5 -1,2 -2,4 -3,6l6 0c4,0 7,0 9,-1 3,0 5,-1 7,-2 1,0 2,-1 3,-2 0,-2 1,-3 1,-4zm56 38c0,1 0,1 -1,2 -1,0 -2,0 -3,0 -1,0 -2,0 -2,0 -1,0 -1,0 -1,0 -1,0 -1,-1 -1,-1 0,0 0,0 0,-1l2 -9c-1,1 -1,3 -3,4 -1,1 -2,3 -4,4 -2,1 -4,2 -6,3 -2,0 -4,1 -6,1 -2,0 -4,0 -6,-1 -1,-1 -2,-1 -4,-2 -1,-1 -1,-2 -2,-4 -1,-1 -1,-2 -2,-3 0,-2 0,-3 0,-4 -1,-2 -1,-3 -1,-4 0,-2 1,-5 1,-7 0,-3 1,-6 2,-8 1,-3 2,-5 3,-8 2,-2 3,-5 5,-7 2,-2 4,-3 7,-4 2,-2 5,-2 8,-2 2,0 3,0 5,0 1,1 2,1 4,2 1,0 2,1 3,2 1,1 1,2 2,3l6 -28c0,0 0,-1 0,-1 0,0 1,0 1,0 0,-1 1,-1 1,-1 1,0 2,0 3,0 0,0 1,0 2,0 0,0 1,0 1,1 0,0 1,0 1,0 0,0 0,1 0,1l-15 72zm-2 -36c-1,-2 -3,-4 -5,-5 -2,-2 -4,-2 -7,-2 -2,0 -3,0 -5,1 -2,1 -3,2 -4,3 -1,2 -2,4 -3,6 -1,2 -2,4 -3,6 0,2 -1,4 -1,6 0,2 0,4 0,5 0,4 0,6 2,8 1,2 3,3 5,3 2,0 4,0 6,-2 2,-1 4,-2 6,-4 2,-2 3,-4 5,-7 1,-3 2,-6 3,-9l1 -9zm66 -3c0,3 -1,5 -2,7 -1,2 -3,4 -5,5 -3,2 -6,3 -10,4 -4,0 -8,1 -14,1l-6 0c0,1 0,2 0,3 0,1 0,2 0,3 0,4 1,7 2,9 2,2 5,3 9,3 3,0 5,-1 7,-1 1,0 3,-1 4,-1 2,0 3,-1 4,-1 1,-1 1,-1 2,-1 0,0 0,0 0,1 0,0 0,0 0,1 0,0 0,0 0,1 0,0 0,1 0,2 0,0 0,1 -1,1 0,0 0,1 0,1 -1,1 -2,1 -3,1 -1,1 -2,1 -4,2 -1,0 -3,0 -5,0 -1,1 -3,1 -5,1 -3,0 -6,-1 -9,-1 -2,-1 -4,-2 -6,-4 -1,-1 -2,-3 -3,-5 -1,-3 -1,-5 -1,-8 0,-3 0,-5 0,-8 1,-3 1,-5 2,-8 1,-3 3,-5 4,-8 2,-2 4,-4 6,-6 2,-2 4,-3 7,-4 3,-2 6,-2 10,-2 3,0 5,0 8,1 2,1 3,2 5,3 1,1 2,2 3,4 0,1 1,3 1,4zm-10 1c0,-2 0,-3 -2,-4 -1,-2 -3,-2 -6,-2 -2,0 -4,0 -6,1 -2,1 -4,2 -5,3 -1,2 -3,3 -4,5 -1,2 -1,4 -2,6l6 0c3,0 7,0 9,-1 3,0 5,-1 6,-2 2,0 3,-1 4,-2 0,-2 0,-3 0,-4zm66 -12c1,0 1,0 2,1 0,0 0,1 0,2l-9 47c-1,1 -1,1 -1,1 0,0 0,1 -1,1 0,0 -1,0 -1,0 -1,0 -2,0 -2,0 -1,0 -2,0 -3,0 0,0 -1,0 -1,0 0,0 0,-1 0,-1 -1,0 -1,0 -1,-1l9 -43 -22 0 -9 47c-1,3 -2,6 -3,8 -1,2 -2,4 -4,5 -1,2 -3,3 -5,4 -2,0 -4,1 -7,1 -1,0 -3,0 -4,-1 -1,0 -1,0 -2,0 0,-1 0,-1 0,-1 0,0 0,-1 0,-1 0,0 0,0 0,-1 0,0 0,0 0,-1 0,0 0,-1 0,-1 1,0 1,-1 1,-1 0,0 0,-1 0,-1 0,0 1,0 1,0 0,0 0,0 1,0 0,0 0,0 0,0 1,0 1,0 1,0 1,0 1,0 2,0 1,0 3,0 4,-1 1,0 2,-1 3,-2 0,-1 1,-2 2,-4 0,-1 1,-3 1,-5l9 -45 -7 0c0,0 -1,0 -1,0 0,0 0,-1 0,-1 0,-1 0,-1 0,-1 0,-1 0,-1 0,-2 0,0 0,0 0,-1 1,0 1,-1 1,-1 0,0 0,-1 1,-1 0,0 0,0 1,0l6 0 2 -7c0,-3 1,-5 2,-8 1,-2 3,-4 4,-5 2,-2 4,-3 6,-3 2,-1 4,-2 6,-2 1,0 2,0 3,1 1,0 1,0 2,0 1,0 1,0 2,0 0,1 0,1 1,1 0,0 0,0 0,1 0,0 0,0 0,1 0,0 0,0 0,0 0,1 0,1 0,1 0,1 0,1 0,2 0,0 -1,0 -1,1 0,0 0,0 0,1 0,0 -1,0 -1,0 0,0 0,0 -1,0 0,0 0,0 -1,-1 0,0 -1,0 -2,0 0,0 -1,0 -2,0 -1,0 -2,0 -3,1 -2,0 -2,1 -3,2 -1,1 -2,2 -2,4 -1,1 -1,3 -2,5l0 5 28 0zm7 -15c-1,1 -1,2 -1,2 0,1 -1,2 -1,2 -1,0 -1,1 -2,1 -1,0 -2,0 -3,0 -1,0 -2,0 -3,0 0,0 -1,-1 -1,-1 0,0 -1,-1 -1,-2 0,0 0,-1 1,-2 0,-1 0,-2 0,-3 1,0 1,-1 2,-1 0,-1 1,-1 1,-1 1,0 2,-1 3,-1 1,0 2,1 3,1 0,0 1,0 1,1 1,0 1,1 1,1 0,1 0,2 0,3zm50 27c0,1 0,3 0,4 0,1 0,2 -1,4l-6 30c0,1 0,1 0,1 0,0 -1,1 -1,1 0,0 -1,0 -2,0 0,0 -1,0 -2,0 -1,0 -1,0 -2,0 0,0 -1,0 -1,0 -1,0 -1,-1 -1,-1 0,0 0,0 0,-1l6 -30c0,-1 1,-2 1,-3 0,-1 0,-2 0,-3 0,-2 -1,-4 -2,-5 -1,-2 -2,-2 -4,-2 -2,0 -4,0 -6,1 -2,1 -4,3 -6,5 -2,2 -3,4 -5,7 -1,2 -2,5 -2,9l-5 21c0,1 0,1 0,1 0,0 -1,1 -1,1 0,0 -1,0 -1,0 -1,0 -2,0 -3,0 -1,0 -1,0 -2,0 0,0 -1,0 -1,0 -1,0 -1,-1 -1,-1 0,0 0,0 0,-1l10 -49c0,0 0,0 0,0 0,-1 1,-1 1,-1 0,0 1,0 1,0 1,0 2,0 2,0 1,0 2,0 2,0 1,0 1,0 1,0 1,0 1,0 1,1 0,0 0,0 0,0l-2 10c1,-2 1,-3 3,-4 1,-2 2,-3 4,-4 2,-1 4,-2 6,-3 2,-1 4,-1 6,-1 3,0 5,0 6,1 2,1 3,2 4,3 1,1 2,3 2,4 1,2 1,3 1,5zm33 -27c0,1 -1,2 -1,2 0,1 -1,2 -1,2 -1,0 -1,1 -2,1 -1,0 -2,0 -3,0 -1,0 -2,0 -3,0 0,0 -1,-1 -1,-1 0,0 -1,-1 -1,-2 0,0 0,-1 1,-2 0,-1 0,-2 0,-3 1,0 1,-1 2,-1 0,-1 1,-1 1,-1 1,0 2,-1 3,-1 1,0 2,1 3,1 1,0 1,0 1,1 1,0 1,1 1,1 0,1 0,2 0,3zm-14 65c0,1 -1,1 -1,1 0,0 0,1 -1,1 0,0 0,0 -1,0 -1,0 -1,0 -2,0 -1,0 -2,0 -2,0 -1,0 -1,0 -2,0 0,0 0,-1 0,-1 0,0 0,0 0,-1l9 -49c0,0 0,0 1,0 0,-1 0,-1 0,-1 1,0 1,0 2,0 1,0 1,0 2,0 1,0 2,0 2,0 1,0 1,0 2,0 0,0 0,0 0,1 0,0 0,0 0,0l-9 49zm64 -38c0,1 0,3 0,4 0,1 0,2 -1,4l-6 30c0,1 0,1 0,1 0,0 -1,1 -1,1 0,0 -1,0 -1,0 -1,0 -2,0 -3,0 -1,0 -1,0 -2,0 0,0 -1,0 -1,0 0,0 -1,-1 -1,-1 0,0 0,0 0,-1l6 -30c0,-1 1,-2 1,-3 0,-1 0,-2 0,-3 0,-2 -1,-4 -2,-5 -1,-2 -2,-2 -4,-2 -2,0 -4,0 -6,1 -2,1 -4,3 -6,5 -2,2 -3,4 -4,7 -2,2 -3,5 -3,9l-5 21c0,1 0,1 0,1 0,0 -1,1 -1,1 0,0 -1,0 -1,0 -1,0 -2,0 -3,0 -1,0 -1,0 -2,0 0,0 -1,0 -1,0 0,0 -1,-1 -1,-1 0,0 0,0 0,-1l10 -49c0,0 0,0 0,0 1,-1 1,-1 1,-1 0,0 1,0 1,0 1,0 2,0 2,0 1,0 2,0 2,0 1,0 1,0 1,0 1,0 1,0 1,1 0,0 0,0 0,0l-2 10c1,-2 1,-3 3,-4 1,-2 2,-3 4,-4 2,-1 4,-2 6,-3 2,-1 4,-1 6,-1 3,0 5,0 6,1 2,1 3,2 4,3 1,1 2,3 2,4 1,2 1,3 1,5zm50 42c-1,3 -2,6 -3,8 -2,2 -3,4 -5,5 -2,2 -5,3 -7,4 -3,0 -6,1 -10,1 -3,0 -5,-1 -8,-1 -2,-1 -4,-2 -6,-2 0,-1 -1,-1 -1,-2 0,0 0,0 0,-1 0,0 0,0 0,-1 0,0 0,-1 0,-1 0,0 0,-1 0,-1 0,-1 1,-1 1,-1 0,-1 0,-1 0,-1 1,0 1,0 1,0 1,0 1,0 2,0 1,0 2,1 3,1 1,1 2,1 4,2 1,0 3,0 6,0 2,0 3,0 5,0 2,-1 3,-1 4,-2 1,-1 2,-2 3,-3 1,-1 1,-3 2,-5 0,-3 1,-6 2,-8 0,-2 1,-4 1,-5 -1,1 -1,3 -3,4 -1,2 -2,3 -4,4 -2,1 -4,2 -6,3 -2,0 -4,1 -6,1 -2,0 -5,-1 -7,-2 -2,0 -3,-2 -4,-3 -1,-2 -2,-4 -3,-6 0,-2 0,-4 0,-7 0,-2 0,-4 0,-7 1,-3 1,-5 2,-8 1,-3 2,-5 3,-8 2,-2 3,-5 5,-7 2,-2 4,-3 7,-4 3,-2 5,-2 9,-2 3,0 6,1 8,2 2,1 4,3 6,5l1 -5c0,0 1,-1 1,-1 1,0 2,0 4,0 0,0 1,0 1,0 1,0 1,0 2,0 0,0 0,0 0,1 0,0 0,0 0,0l-10 53zm-1 -40c-2,-2 -4,-4 -6,-6 -2,-1 -4,-1 -7,-1 -2,0 -3,0 -5,1 -1,1 -3,2 -4,4 -1,1 -2,3 -3,5 -1,2 -2,4 -2,6 -1,2 -1,4 -2,6 0,2 0,4 0,5 0,2 0,3 0,5 1,1 1,2 2,3 0,1 1,2 2,2 1,1 2,1 4,1 2,0 4,0 6,-2 2,-1 4,-2 5,-4 2,-2 4,-4 5,-7 1,-3 2,-6 3,-9l2 -9z"/>
   <path class="fil2" d="M1173 458c0,0 0,0 0,1 0,0 0,0 0,1 0,0 0,1 -1,1 0,1 0,1 0,1 0,1 0,1 -1,1 0,0 0,0 -1,0 0,0 0,0 -1,0 -1,-1 -2,-1 -3,-2 -1,0 -2,-1 -4,-1 -1,-1 -3,-1 -5,-1 -2,0 -4,0 -6,1 -2,1 -3,2 -4,3 -1,1 -2,2 -3,4 0,1 -1,3 -1,4 0,2 1,3 2,4 0,2 1,3 2,4 1,1 3,2 4,2 2,1 3,2 5,3 1,1 3,2 4,3 2,1 3,2 4,4 1,1 2,3 3,4 1,2 1,4 1,6 0,4 -1,6 -2,9 -1,3 -3,5 -5,7 -3,2 -5,4 -9,5 -3,1 -7,2 -11,2 -2,0 -4,0 -6,-1 -2,0 -4,-1 -5,-1 -2,-1 -3,-1 -4,-2 -1,-1 -2,-1 -2,-2 -1,0 -1,-1 -1,-2 0,0 0,0 0,-1 0,0 0,0 0,-1 0,0 1,-1 1,-1 0,-1 0,-1 0,-1 0,-1 1,-1 1,-1 0,-1 0,-1 1,-1 0,0 1,1 2,1 1,1 2,1 3,2 1,1 3,1 5,2 1,0 4,1 6,1 2,0 5,-1 7,-1 2,-1 3,-2 5,-3 1,-1 2,-3 3,-4 1,-2 1,-4 1,-6 0,-1 0,-3 -1,-4 -1,-1 -2,-2 -3,-3 -1,-1 -2,-2 -4,-3 -1,-1 -3,-2 -4,-3 -2,-1 -3,-2 -5,-3 -1,-1 -2,-2 -3,-3 -2,-2 -2,-3 -3,-5 -1,-2 -1,-4 -1,-6 0,-3 0,-6 1,-8 2,-3 3,-5 5,-7 2,-2 5,-3 8,-4 3,-1 6,-2 10,-2 1,0 3,0 5,1 1,0 3,0 4,1 1,0 2,1 3,1 1,1 2,1 2,1 0,1 1,1 1,1 0,1 0,1 0,2zm53 31c0,2 0,5 0,8 -1,3 -2,5 -3,8 -1,2 -2,5 -4,7 -1,3 -3,5 -5,6 -2,2 -5,3 -8,4 -2,1 -5,2 -9,2 -3,0 -6,-1 -9,-1 -2,-1 -4,-3 -6,-4 -1,-2 -3,-4 -3,-6 -1,-2 -2,-5 -2,-8 0,-3 1,-5 1,-8 1,-3 1,-6 3,-8 1,-3 2,-5 3,-8 2,-2 4,-4 6,-6 2,-1 5,-3 7,-4 3,-1 6,-1 10,-1 3,0 6,0 9,1 2,1 4,2 6,4 1,1 3,3 3,6 1,2 1,5 1,8zm-9 0c0,-2 0,-3 -1,-5 0,-1 -1,-3 -1,-4 -1,-1 -3,-1 -4,-2 -1,0 -3,-1 -5,-1 -2,0 -4,1 -6,2 -2,0 -4,1 -5,3 -1,1 -3,3 -4,4 -1,2 -1,4 -2,6 -1,2 -1,4 -2,6 0,2 0,4 0,7 0,1 0,3 0,4 1,2 1,3 2,4 1,1 2,2 4,2 1,1 3,1 5,1 2,0 4,0 6,-1 2,-1 3,-2 5,-3 1,-1 2,-3 3,-5 1,-2 2,-3 3,-5 1,-3 1,-5 2,-7 0,-2 0,-4 0,-6zm26 32c0,1 0,1 0,1 0,0 -1,1 -1,1 0,0 -1,0 -2,0 0,0 -1,0 -2,0 -1,0 -1,0 -2,0 -1,0 -1,0 -1,0 -1,0 -1,-1 -1,-1 0,0 0,0 0,-1l15 -72c0,-1 0,-1 0,-1 0,0 0,-1 1,-1 0,0 1,0 1,0 1,0 2,0 2,0 1,0 2,0 3,0 0,0 1,0 1,0 0,0 0,1 1,1 0,0 0,0 0,1l-15 72zm57 0c0,1 0,1 -1,2 0,0 -1,0 -3,0 -1,0 -1,0 -2,0 0,0 -1,0 -1,0 0,0 0,-1 -1,-1 0,0 0,0 0,-1l2 -9c0,1 -1,3 -2,4 -2,1 -3,3 -5,4 -1,1 -3,2 -5,3 -2,0 -5,1 -7,1 -3,0 -5,-1 -7,-2 -2,-1 -3,-2 -4,-4 -2,-1 -2,-3 -3,-5 0,-3 0,-5 0,-7 0,-2 0,-4 0,-7 1,-2 1,-5 2,-8 1,-2 2,-5 3,-8 2,-2 3,-4 5,-6 2,-2 4,-4 7,-5 3,-2 5,-2 9,-2 3,0 6,1 8,2 2,1 4,3 6,5l1 -5c0,0 1,-1 1,-1 1,0 2,0 4,0 0,0 1,0 2,0 0,0 0,0 1,0 0,0 0,0 0,1 0,0 0,0 0,0l-10 49zm-1 -36c-2,-2 -4,-4 -6,-6 -2,-1 -4,-1 -6,-1 -2,0 -4,0 -6,1 -1,1 -3,2 -4,4 -1,1 -2,3 -3,5 -1,2 -2,4 -2,6 -1,2 -1,4 -2,6 0,2 0,4 0,5 0,2 0,3 0,4 1,1 1,3 1,4 1,1 2,1 3,2 1,1 2,1 4,1 2,0 4,0 6,-2 2,-1 4,-2 5,-4 2,-2 4,-4 5,-7 1,-3 2,-6 3,-9l2 -9zm56 -13c0,1 0,1 0,1 0,1 -1,1 -1,2 0,0 0,1 0,1 0,1 0,1 0,2 -1,0 -1,1 -1,1 0,0 -1,1 -1,1 0,0 -1,0 -1,-1 0,0 -1,0 -1,0 0,0 -1,0 -1,0 -1,-1 -2,-1 -2,-1 -2,0 -3,1 -5,2 -1,1 -3,3 -4,4 -2,2 -3,5 -5,7 -1,3 -2,6 -3,9l-4 21c0,1 0,1 0,1 0,0 -1,1 -1,1 0,0 -1,0 -2,0 0,0 -1,0 -2,0 -1,0 -1,0 -2,0 0,0 -1,0 -1,0 -1,0 -1,-1 -1,-1 0,0 0,0 0,-1l10 -49c0,0 0,0 0,0 0,-1 1,-1 1,-1 0,0 1,0 1,0 1,0 2,0 2,0 1,0 2,0 2,0 1,0 1,0 1,0 1,0 1,0 1,1 0,0 0,0 0,0l-2 9c1,-1 2,-3 3,-4 1,-1 2,-3 4,-4 1,-1 2,-2 4,-2 1,-1 3,-1 4,-1 1,0 2,0 2,0 1,0 1,0 2,0 0,0 1,1 1,1 1,0 1,0 1,0 1,1 1,1 1,1z"/>
  </g>
 </g>
</svg>
